<?xml version="1.0" encoding="UTF-8" standalone="no"?>
<svg
   version="1.1"
   id="Layer_1"
   x="0px"
   y="0px"
   width="100%"
   viewBox="0 0 3000 3000"
   enable-background="new 0 0 3000 3000"
   xml:space="preserve"
   sodipodi:docname="laravext.svg"
   inkscape:version="1.3.2 (091e20e, 2023-11-25, custom)"
   xmlns:inkscape="http://www.inkscape.org/namespaces/inkscape"
   xmlns:sodipodi="http://sodipodi.sourceforge.net/DTD/sodipodi-0.dtd"
   xmlns="http://www.w3.org/2000/svg"
   xmlns:svg="http://www.w3.org/2000/svg"><defs
   id="defs17" /><sodipodi:namedview
   id="namedview17"
   pagecolor="#ffffff"
   bordercolor="#000000"
   borderopacity="0.25"
   inkscape:showpageshadow="2"
   inkscape:pageopacity="0.0"
   inkscape:pagecheckerboard="0"
   inkscape:deskcolor="#d1d1d1"
   showgrid="false"
   inkscape:zoom="0.271"
   inkscape:cx="1525.8303"
   inkscape:cy="1607.0111"
   inkscape:window-width="1920"
   inkscape:window-height="1009"
   inkscape:window-x="-6"
   inkscape:window-y="-8"
   inkscape:window-maximized="1"
   inkscape:current-layer="Layer_1" />
<path
   fill="#000000"
   opacity="1"
   stroke="none"
   d="M 1492.5239,3001.3794 C 995.36951,3002 498.73901,3002 2.054264,3002 c 0,-999.891 0,-1999.782 0,-2999.836481 999.763836,0 1999.581936,0 2999.672836,0 0,999.836381 0,1999.836481 0,2999.836481 -498.5928,0 -997.2226,0 -1496.7898,0 -6.1319,-6.667 -2e-4,-8.7742 3.9187,-11.2502 22.2639,-14.0672 45.418,-26.6292 68.2094,-39.7979 97.2386,-56.1836 194.4669,-112.385 291.7619,-168.4709 120.1019,-69.2334 240.0919,-138.6607 360.2015,-207.8807 90.9485,-52.4143 181.8316,-104.9423 272.7017,-157.4924 91.447,-52.8828 182.9939,-105.5925 274.4604,-158.4407 11,-6.3554 15.0032,-14.4687 14.9661,-26.7536 -0.2688,-88.6607 -0.1463,-177.3225 -0.1458,-265.9842 0,-338.9804 -0,-677.9609 0.022,-1016.9413 4e-4,-7.30933 -0.6133,-14.68042 1.572,-22.719 0.2243,-1.43261 0.313,-2.01062 0.5364,-3.46441 1.424,-7.41425 1.8161,-14.02997 1.8266,-20.67694 0.063,-40.47187 0.052,-80.94379 -0.01,-121.41565 -0.01,-5.58728 0.6055,-11.41199 -4.882,-17.34302 -0.929,-2.06866 -1.1263,-2.57812 -1.6563,-3.8078 -0.5781,-1.17261 -0.8237,-1.625 -1.4704,-2.71851 -8.4961,-10.55297 -20.4463,-14.78369 -30.9988,-20.90014 -93.6477,-54.279 -187.4082,-108.36402 -281.1673,-162.45099 C 2372.6621,514.57831 2270.552,455.63782 2168.4277,396.72223 2081.3047,346.46085 1994.308,295.97781 1907.1643,245.75194 1800.6871,184.383 1694.3544,122.76402 1587.8451,61.450592 1558.9905,44.84008 1529.7239,28.911825 1500.9377,10.78751 c -2.1272,-0.327664 -3.5754,-0.344082 -5.7443,0.01795 -87.6131,50.959868 -174.9233,100.972651 -262.0331,151.331731 -87.4,50.52687 -174.8225,101.01482 -262.2662,151.46578 C 881.72058,365.052 792.58636,416.56918 703.41217,468.01706 615.96771,518.46692 528.57324,569.0036 441.13434,619.46313 368.992,661.09528 297.07901,703.13159 224.55862,744.09637 c -14.21075,8.02729 -19.90771,17.41925 -19.89398,34.0105 0.4,483.23563 0.40151,966.47183 -0.006,1449.70763 -0.014,16.581 5.64716,26.0686 19.77457,34.1369 108.20434,61.7981 215.99063,124.3274 323.91076,186.6221 87.43189,50.4687 174.81293,101.0261 262.24414,151.4958 88.58631,51.136 177.15986,102.2942 265.76077,153.4051 88.0228,50.7776 176.0216,101.5971 263.9878,152.4729 48.7411,28.1897 97.6832,56.0332 146.139,84.7131 3.5532,2.1028 9.6968,3.3113 6.0482,10.719 z"
   id="path1"
   style="display:none" />
<path
   fill="#d10000"
   opacity="1"
   stroke="none"
   d="m 2795.4673,925.70184 c 0.6091,4.57691 0.8852,8.56562 0.8855,12.55426 0.019,433.901 0.018,867.8019 0.018,1301.7029 0,1.333 -0.2004,2.7019 0.032,3.9931 1.2713,7.0647 -2.414,10.6414 -8.2197,13.9629 -53.4326,30.5694 -106.73,61.375 -160.0437,92.1526 -68.0066,39.2598 -135.9873,78.565 -203.9875,117.836 -88.7478,51.2534 -177.4961,102.5061 -266.2579,153.7343 -84.1535,48.5691 -168.3325,97.094 -252.487,145.6612 -96.2565,55.5517 -192.5029,111.1206 -288.7445,166.698 -36.0154,20.7986 -72.0025,41.6462 -108.0092,62.4599 -2.0212,1.1682 -4.1349,2.19 -5.0553,4.8936 -3.0267,0.6494 -6.4554,0.6494 -10.7411,0.6494 0.1872,-4.5129 -4.2235,-4.2749 -6.2185,-5.4468 -26.6872,-15.676 -53.5444,-31.0627 -80.3425,-46.5505 -74.3355,-42.9619 -148.6416,-85.9749 -223.0017,-128.8943 -46.9832,-27.1179 -94.0874,-54.0261 -141.057,-81.1675 -82.69667,-47.7868 -165.30849,-95.7209 -248.00087,-143.5156 -60.79505,-35.1384 -121.6709,-70.137 -182.49451,-105.2261 -76.39087,-44.07 -152.76526,-88.1687 -229.14627,-132.2561 -58.51132,-33.7729 -116.98474,-67.612 -175.59694,-101.2092 -5.19829,-2.98 -8.28357,-6.1099 -7.38953,-12.3616 0.37365,-2.6128 0.0597,-5.324 0.0597,-7.9902 -1.1e-4,-489.2687 0.0555,-978.5373 -0.31058,-1467.80568 -0.009,-12.6366 3.68658,-19.14966 14.74075,-25.38886 63.17797,-35.65893 125.79174,-72.31696 188.62081,-108.5946 88.18969,-50.9209 176.40017,-101.80591 264.60177,-152.70618 84.456,-48.73871 168.92237,-97.45932 253.36505,-146.22104 85.88192,-49.59274 171.74022,-99.22646 257.60922,-148.84145 101.7156,-58.77101 203.4295,-117.54494 305.1566,-176.296019 3.4523,-1.993821 7.0395,-3.754075 11.2468,-5.738781 1.1509,-0.292341 1.6187,-0.469056 2.8032,-0.42882 5.5519,4.766717 5.4834,10.706152 5.4842,16.681561 0.01,45.320005 0.354,90.644759 -0.2349,135.956959 -0.1645,12.6655 4.4928,20.18025 15.2922,26.39267 136.8696,78.73543 273.5511,157.7979 410.3143,236.71767 124.0676,71.59366 248.1589,143.14724 372.2207,214.7507 121.7539,70.27124 243.5466,140.47601 365.1789,210.95831 37.1802,21.54492 74.3672,43.08283 111.711,64.34619 5.6762,3.23218 11.4309,6.40046 15.9326,12.3852 0.9167,0.84155 1.2605,1.20263 2.0659,2.15191 z"
   id="path2"
   style="display:inline" />
<path
   fill="#d13f3f"
   opacity="1"
   stroke="none"
   d="m 2794.4497,925.03394 c -14.7668,-5.66156 -27.9123,-14.22858 -41.4658,-22.03815 C 2642.0933,839.10016 2531.283,775.06604 2420.4485,711.07294 2329.5298,658.57886 2238.6106,606.08539 2147.6938,553.58771 2041.1912,492.09058 1934.6903,430.59033 1828.1901,369.08908 1721.4012,307.42108 1614.6533,245.6821 1507.7395,184.23144 c -7.2924,-4.19143 -10.1868,-8.94752 -10.1355,-17.34581 0.3239,-52.99584 0.1774,-105.99457 0.2148,-159.927941 0.5359,-1.225896 1.043,-1.516197 2.3481,-1.443928 27.3808,15.525225 54.0163,30.596808 80.5351,45.870665 46.4347,26.74474 92.7892,53.629034 139.193,80.427524 108.0841,62.41917 216.178,124.82129 324.267,187.23178 85.6034,49.42731 171.2103,98.84912 256.8077,148.28681 106.6385,61.59024 213.2603,123.20974 319.9068,184.7861 53.0339,30.62115 106.1081,61.17199 159.1579,91.76513 3.7478,2.1612 7.4448,4.40955 11.6121,7.10615 0.7973,1.2348 1.2712,1.89398 2.4282,2.6864 0.5772,0.208 0.2632,-0.40094 0.5679,-0.55756 1.498,3.03778 1.3572,6.37707 1.3567,9.6969 -0.01,50.50745 0.017,101.01495 -0.018,151.5224 0,3.30469 0.3576,6.66583 -1.5313,10.69788 z"
   id="path3"
   style="display:inline" />
<path
   fill="#d42f2f"
   opacity="1"
   stroke="none"
   d="m 2794.4456,926.02356 c -0.4729,-51.77753 -0.4756,-103.4325 -0.4156,-155.08734 0.01,-5.32318 0.387,-10.64588 0.7556,-16.97247 0.1617,-1.00361 0.8577,-0.58857 1.146,-0.30372 1.5486,2.80054 1.0469,5.5058 1.0467,8.13001 -0.01,53.47778 0.091,106.95563 -0.2351,161.40271 -0.2923,1.32702 -0.3802,1.68469 -0.6411,2.56982 -0.5049,0.47956 -0.837,0.43158 -1.6565,0.26099 z"
   id="path4"
   style="display:inline" />
<path
   fill="#380000"
   opacity="1"
   stroke="none"
   d="m 2796.8442,923.38586 c -0.4824,-1.86682 -0.8134,-4.50988 -0.8139,-7.15295 -0.01,-53.47125 0.018,-106.94244 0.1137,-161.35083 1.8269,2.07062 1.8262,5.40936 1.8267,8.72266 0.01,50.70538 0.012,101.41076 -0.038,152.11608 0,2.29657 -0.5105,4.59253 -1.0884,7.66504 z"
   id="path5"
   style="display:none" />
<path
   fill="#d01010"
   opacity="1"
   stroke="none"
   d="m 1500.4899,5.380788 c -0.044,0.51711 -0.564,0.538691 -1.8629,0.600789 -1.1912,-0.01393 -1.6028,-0.068378 -2.6297,-0.215269 0.643,-2.036211 2.2594,-1.874784 4.4926,-0.38552 z"
   id="path6"
   style="display:inline" />
<path
   fill="#d42f2f"
   opacity="1"
   stroke="none"
   d="m 2794.5239,753.24072 c -0.445,0.11249 -1.018,-0.4165 -2.011,-1.35479 0.3479,-0.0351 1.1158,0.33911 2.011,1.35479 z"
   id="path7"
   style="display:inline" />
<path
   fill="#000000"
   opacity="1"
   stroke="none"
   d="m 496.89133,2079.8557 c 0.5928,-5.5674 0.82525,-10.5605 0.8255,-15.5539 0.0169,-375.6651 0.0399,-751.3301 -0.14591,-1126.99504 -0.004,-8.1521 1.8613,-12.94848 9.48661,-17.30749 85.52371,-48.88965 170.78707,-98.23505 256.09402,-147.5036 106.34857,-61.42096 212.65973,-122.90656 319.01055,-184.32361 97.7045,-56.42389 195.4415,-112.79141 293.1611,-169.18906 38.6261,-22.29257 77.3083,-44.49011 115.789,-67.03119 5.084,-2.97809 8.6503,-2.55047 13.4984,0.2591 81.7831,47.39407 163.6728,94.60397 245.537,141.85809 88.4967,51.08267 176.9862,102.17825 265.4888,153.25088 84.1776,48.57666 168.377,97.11561 252.5504,145.69983 73.2195,42.26191 146.3571,84.66651 219.7136,126.68885 7.3125,4.18878 9.9036,8.83081 9.8987,17.27691 -0.2198,377.33153 -0.2273,754.66333 0.033,1131.99473 0.01,9.0408 -3.1028,13.4744 -10.658,17.8067 -78.8252,45.198 -157.4018,90.8296 -236.0901,136.2671 -61.6811,35.6169 -123.4419,71.0961 -185.1323,106.6972 -90.5221,52.2403 -181.0071,104.544 -271.5183,156.8028 -68.8878,39.7739 -137.7933,79.5175 -206.6875,119.2805 -29.695,17.1389 -59.3811,34.2929 -89.72,51.7334 -4.9709,4.5991 -8.5842,1.228 -12.2451,-0.845 -42.0237,-23.7913 -83.6625,-48.2507 -125.5264,-72.3186 -76.8082,-44.1577 -153.4817,-88.5486 -230.2363,-132.7991 -69.8235,-40.2544 -139.55163,-80.6753 -209.37487,-120.9302 -76.75348,-44.2502 -153.4212,-88.6491 -230.19177,-132.8703 -61.46893,-35.4072 -122.86536,-70.9412 -184.25638,-106.4832 -4.05182,-2.3457 -10.8515,-3.438 -9.30395,-11.4658 z"
   id="path8"
   style="display:inline" />
<path
   fill="#D13F3F"
   opacity="1.000000"
   stroke="none"
   d=" M496.738525,2079.245117   C505.044617,2086.359131 514.661682,2090.388428 523.529785,2095.523682   C618.864868,2150.729248 714.318665,2205.729736 809.730286,2260.803223   C878.333923,2300.402588 946.919678,2340.032715 1015.519470,2379.638672   C1123.610474,2442.044189 1231.701050,2504.450439 1339.802490,2566.837891   C1391.977783,2596.948975 1444.177124,2627.018555 1496.871338,2657.484131   C1497.626953,2661.510742 1498.089600,2665.159912 1498.093750,2668.809570   C1498.144287,2714.139404 1498.145142,2759.469238 1498.118652,2804.799072   C1498.110840,2817.960205 1497.366211,2818.340820 1485.638428,2811.565918   C1329.225952,2721.212158 1172.834717,2630.822021 1016.399353,2540.508057   C875.550232,2459.192383 734.650146,2377.964844 593.778931,2296.687500   C528.827942,2259.213135 463.889893,2221.716797 398.952942,2184.218262   C387.159607,2177.408203 387.108643,2177.308838 397.407013,2167.856201   C428.095276,2139.687500 458.836029,2111.575928 489.575806,2083.463379   C491.506348,2081.697998 493.155945,2079.422852 496.738525,2079.245117  z"
   id="path9" />
<path
   fill="#D10000"
   opacity="1.000000"
   stroke="none"
   d=" M2314.237061,1678.476318   C2316.354492,1682.453003 2315.630615,1686.169434 2315.633057,1689.788208   C2315.680908,1764.112671 2315.522705,1838.437866 2315.871826,1912.760620   C2315.911133,1921.144409 2313.503418,1925.884888 2306.156006,1930.098145   C2255.635498,1959.067505 2205.366699,1988.475952 2155.044189,2017.790039   C2089.194092,2056.149658 2023.389282,2094.585938 1957.528687,2132.927002   C1899.435303,2166.746338 1841.272217,2200.446045 1783.175293,2234.259766   C1710.405273,2276.613525 1637.667236,2319.022217 1564.925049,2361.423828   C1545.374634,2372.819580 1525.783447,2384.148926 1506.372314,2395.778076   C1500.368164,2399.375244 1495.639526,2399.501465 1489.167969,2395.761475   C1395.522095,2341.642822 1301.684448,2287.855957 1207.860596,2234.045654   C1133.379028,2191.328613 1058.833130,2148.723389 984.352661,2106.004395   C882.155579,2047.388550 779.993408,1988.711792 677.817810,1930.058228   C677.240356,1929.726929 676.726501,1929.243286 676.113892,1929.020752   C668.078186,1926.102539 666.052246,1920.479492 666.071899,1912.033081   C666.356995,1789.715088 666.387024,1667.395752 666.022095,1545.078125   C665.995178,1536.057373 669.122864,1531.327515 676.411804,1526.925293   C724.851807,1497.668579 773.090332,1468.077759 821.363708,1438.545654   C898.318115,1391.467529 975.221985,1344.306763 1052.197998,1297.264160   C1109.004150,1262.547974 1165.940796,1228.045044 1222.660522,1193.188599   C1227.965820,1189.928223 1231.684692,1189.673950 1237.038696,1193.039795   C1292.270386,1227.762817 1347.668457,1262.221436 1403.029053,1296.739502   C1427.315063,1311.881958 1451.623779,1326.987915 1475.911133,1342.127930   C1477.017944,1342.817993 1478.016968,1343.680542 1479.052612,1344.452515   C1478.426636,1348.281372 1474.995361,1348.867432 1472.696899,1350.304565   C1419.636108,1383.481934 1366.516235,1416.565186 1313.367554,1449.601929   C1260.786987,1482.285645 1208.163818,1514.900635 1155.557129,1547.542603   C1119.072144,1570.180908 1082.691528,1592.991577 1045.989868,1615.272949   C1039.910889,1618.963135 1038.232910,1623.066162 1038.252197,1629.701660   C1038.427612,1690.025146 1038.317749,1750.349365 1038.184204,1811.644287   C1034.206177,1818.638550 1028.000244,1816.888672 1022.600220,1816.899292   C960.662537,1817.019165 898.724548,1817.037231 836.214783,1816.941650   C894.418884,1850.389526 952.052917,1883.801392 1009.755066,1917.094971   C1085.073486,1960.552856 1160.354980,2004.074219 1235.671631,2047.534790   C1316.760132,2094.325928 1397.791992,2141.215088 1478.952271,2187.881836   C1489.795532,2194.116943 1492.906494,2192.241211 1492.966553,2179.330811   C1493.107666,2149.003906 1492.940308,2118.675781 1493.076172,2088.348877   C1493.098022,2083.471680 1492.024658,2078.258789 1496.215332,2073.434570   C1510.039673,2067.441406 1521.878906,2059.310547 1534.258057,2052.201904   C1581.875366,2024.857422 1629.356323,1997.275146 1676.864014,1969.739990   C1742.515381,1931.688232 1808.139893,1893.590088 1873.786621,1855.530273   C1896.242432,1842.511108 1918.649780,1829.404175 1941.270264,1816.676636   C1945.973633,1814.030273 1947.781738,1811.056763 1947.767090,1805.688599   C1947.605347,1746.363281 1947.581055,1687.037231 1947.792969,1627.712280   C1947.814331,1621.734375 1945.155273,1618.886963 1940.508667,1615.993408   C1832.848267,1548.947754 1725.254639,1481.794434 1617.683594,1414.605225   C1505.031372,1344.242188 1392.430908,1273.796143 1279.779785,1203.431274   C1153.864014,1124.780884 1027.919067,1046.176880 901.980652,967.562866   C878.549316,952.936462 855.081909,938.367493 831.649780,923.742310   C829.152527,922.183655 826.780823,920.423828 824.449890,918.825195   C824.884399,915.032349 827.818359,914.460693 829.963684,913.169189   C900.132751,870.925842 970.313782,828.702332 1040.496704,786.481934   C1046.483521,782.880310 1052.495483,779.320068 1059.193237,775.563965   C1060.233398,775.746826 1060.576172,776.106262 1061.363159,777.063232   C1065.257324,782.655457 1064.977051,788.370850 1064.979858,794.034912   C1064.996582,829.015625 1065.257324,863.999756 1064.824097,898.974915   C1064.688110,909.952576 1068.849854,916.838257 1078.138062,922.479553   C1180.902344,984.894470 1283.710571,1047.237061 1386.447632,1109.696411   C1526.182495,1194.648926 1665.903320,1279.624023 1805.693726,1364.485107   C1907.048218,1426.013306 2008.328247,1487.664551 2109.642090,1549.260254   C2173.674072,1588.189819 2237.693115,1627.141602 2301.754150,1666.023560   C2306.849609,1669.116211 2310.663574,1673.054199 2314.237061,1678.476318  z"
   id="path10" />
<path
   fill="#D13E3E"
   opacity="1.000000"
   stroke="none"
   d=" M2315.134766,1678.036133   C2297.943604,1670.871094 2282.504150,1660.338989 2266.575928,1650.674683   C2131.570068,1568.761841 1996.648560,1486.710205 1861.707642,1404.690430   C1709.116333,1311.942261 1556.531616,1219.183228 1403.943237,1126.430298   C1293.771973,1059.461304 1183.599243,992.494507 1073.427490,925.526367   C1072.573364,925.007141 1071.777100,924.346252 1070.862305,923.980835   C1062.163208,920.506470 1059.954224,914.019592 1060.054077,904.959717   C1060.512939,863.318604 1060.351562,821.670715 1060.477295,779.101318   C1061.740356,776.704834 1063.365234,777.036316 1065.601074,777.583679   C1111.657349,805.221863 1157.071777,832.376770 1202.434448,859.617615   C1268.072754,899.034302 1333.682129,938.498901 1399.288696,977.968628   C1510.246094,1044.722046 1621.188843,1111.499512 1732.142578,1178.259033   C1806.873901,1223.223877 1881.618652,1268.166382 1956.347778,1313.134766   C2066.157959,1379.213257 2175.961182,1445.302734 2285.761230,1511.398438   C2293.747314,1516.205933 2301.575684,1521.286621 2309.681396,1525.881226   C2313.909424,1528.277832 2315.774414,1531.195068 2315.750732,1536.203369   C2315.528320,1583.181519 2315.520996,1630.160522 2315.134766,1678.036133  z"
   id="path11" />
<path
   fill="#D00000"
   opacity="1.000000"
   stroke="none"
   d=" M2160.796387,916.773804   C2163.348389,917.871765 2166.234131,918.501892 2163.975586,921.003845   C2162.018311,923.172058 2159.320068,924.729675 2156.801514,926.323669   C2118.554443,950.528320 2080.270264,974.673950 2042.020752,998.874634   C1979.865723,1038.200439 1917.728271,1077.553955 1855.586792,1116.901001   C1824.656982,1136.485352 1793.635864,1155.928467 1762.898071,1175.809570   C1757.222168,1179.480713 1753.116211,1179.100830 1747.632080,1175.729736   C1707.367554,1150.978394 1666.916626,1126.531006 1626.555420,1101.936646   C1588.185181,1078.555420 1549.843262,1055.127686 1511.522583,1031.665283   C1508.758667,1029.973022 1505.543945,1028.766235 1503.375000,1025.410645   C1505.269775,1022.552795 1508.299805,1021.254883 1511.052002,1019.605042   C1640.666870,941.903442 1770.275269,864.191223 1899.896729,786.500854   C1905.888062,782.909912 1911.992065,779.506897 1918.712646,775.877197   C1919.859985,775.561218 1920.338501,775.384399 1921.509277,775.533752   C1922.201538,775.859863 1922.364868,775.676636 1922.456543,775.758179   C1926.724854,781.643494 1926.965454,788.341064 1926.974854,795.111084   C1927.018311,826.403748 1926.921387,857.696594 1927.015503,888.989136   C1927.077271,909.552551 1930.394653,912.951477 1950.739258,912.978760   C2009.995728,913.058350 2069.252441,913.076294 2128.508301,912.939880   C2139.156250,912.915405 2149.604248,913.728333 2160.796387,916.773804  z"
   id="path12" />
<path
   fill="#D13E3E"
   opacity="1.000000"
   stroke="none"
   d=" M1496.206665,2072.534180   C1498.160767,2076.382568 1497.910767,2080.080566 1497.912598,2083.734131   C1497.930786,2119.729248 1497.923584,2155.724609 1497.923340,2191.719727   C1497.923340,2192.052979 1497.925293,2192.386475 1497.919556,2192.719727   C1497.732300,2203.576416 1496.929443,2204.161621 1487.451538,2198.703613   C1429.692993,2165.442627 1371.986694,2132.091064 1314.263794,2098.768311   C1212.094727,2039.786255 1109.922852,1980.808960 1007.758606,1921.818604   C948.018433,1887.324219 888.288452,1852.812378 828.565613,1818.287964   C826.593262,1817.147827 824.218811,1816.449463 823.197571,1814.050659   C823.800598,1811.830200 825.712708,1812.108032 827.237366,1812.109131   C896.891541,1812.156372 966.545654,1812.248413 1037.138428,1812.475098   C1069.267822,1830.450195 1100.408936,1848.373169 1131.659424,1866.103149   C1210.388550,1910.770142 1289.160156,1955.362305 1367.928589,1999.960083   C1410.498657,2024.062744 1453.096558,2048.115967 1496.206665,2072.534180  z"
   id="path13" />
<path
   fill="#D03E3E"
   opacity="1.000000"
   stroke="none"
   d=" M2161.280762,916.593994   C2157.542969,918.525391 2153.180420,918.211487 2148.864746,918.212524   C2077.928223,918.229614 2006.991699,918.225525 1936.055176,918.223633   C1934.390137,918.223572 1932.721313,918.260437 1931.060669,918.166931   C1923.073242,917.717590 1921.855713,916.822327 1921.854736,908.558899   C1921.850098,864.937012 1922.046875,821.315063 1922.361084,776.766418   C1941.807861,787.058044 1961.121460,798.184875 1980.316895,809.511719   C2040.515625,845.033813 2100.669922,880.631287 2161.280762,916.593994  z"
   id="path14" />
<path
   fill="#D02E2E"
   opacity="1.000000"
   stroke="none"
   d=" M1065.907959,777.603760   C1064.831665,778.065552 1063.397339,778.102478 1061.252441,778.158447   C1060.424561,777.714783 1060.307007,777.252014 1060.040039,776.088318   C1059.890625,775.387329 1059.643188,775.310852 1059.685791,775.188599   C1060.230347,775.127686 1060.732300,775.189087 1061.988281,775.335510   C1063.678101,776.006714 1064.613892,776.592773 1065.907959,777.603760  z"
   id="path15" />
<path
   fill="#6D0303"
   opacity="1.000000"
   stroke="none"
   d=" M1062.460571,775.029175   C1062.238770,775.368225 1061.735474,775.315918 1060.480225,775.164978   C1060.403198,774.111755 1061.234253,774.049744 1062.460571,775.029175  z"
   id="path16" />
<path
   fill="#D01010"
   opacity="1.000000"
   stroke="none"
   d=" M1921.980957,775.438721   C1921.731201,775.846985 1921.260986,775.834045 1920.086060,775.779663   C1919.987427,774.880371 1920.694702,774.356995 1921.980957,775.438721  z"
   id="path17" />
</svg>
