<?xml version="1.0" encoding="UTF-8" standalone="no"?>
<!-- Created with Inkscape (http://www.inkscape.org/) -->

<svg
   width="3000"
   height="3000"
   viewBox="0 0 793.74998 793.75"
   version="1.1"
   id="svg1"
   xml:space="preserve"
   inkscape:version="1.3.2 (091e20e, 2023-11-25, custom)"
   sodipodi:docname="laravext-inkspace.svg"
   xmlns:inkscape="http://www.inkscape.org/namespaces/inkscape"
   xmlns:sodipodi="http://sodipodi.sourceforge.net/DTD/sodipodi-0.dtd"
   xmlns="http://www.w3.org/2000/svg"
   xmlns:svg="http://www.w3.org/2000/svg"><sodipodi:namedview
     id="namedview1"
     pagecolor="#ffffff"
     bordercolor="#000000"
     borderopacity="0.25"
     inkscape:showpageshadow="2"
     inkscape:pageopacity="0.0"
     inkscape:pagecheckerboard="0"
     inkscape:deskcolor="#d1d1d1"
     inkscape:document-units="mm"
     inkscape:zoom="0.35355339"
     inkscape:cx="1371.7871"
     inkscape:cy="1135.6135"
     inkscape:window-width="1920"
     inkscape:window-height="1009"
     inkscape:window-x="-6"
     inkscape:window-y="-8"
     inkscape:window-maximized="1"
     inkscape:current-layer="layer2" /><defs
     id="defs1"><linearGradient
       id="swatch10"
       inkscape:swatch="solid"><stop
         style="stop-color:#000000;stop-opacity:1;"
         offset="0"
         id="stop10" /></linearGradient></defs><g
     inkscape:label="Layer 1"
     inkscape:groupmode="layer"
     id="layer1"
     style="display:none;opacity:0.5"><g
       id="g1"
       transform="matrix(0.42156641,0,0,0.42156641,36.83396,-5.0121481)"><path
         d="m 0,0 c 5.0763527,3.0784835 10.215443,6.031604 15.378906,8.9609375 6.653043,3.7868895 13.284382,7.6054395 19.875,11.4999995 6.647528,3.926791 13.330517,7.785624 20.042481,11.601563 11.393852,6.477723 22.775118,12.971164 34.058349,19.640137 4.300539,2.539483 8.620471,5.038904 12.961674,7.5083 5.0484,2.871677 10.06265,5.794702 15.0625,8.75 6.44631,3.80865 12.93084,7.545432 19.4375,11.25 6.50665,3.704571 12.99106,7.441549 19.4375,11.25 6.64757,3.926714 13.33051,7.785623 20.04248,11.601563 11.39674,6.47936 22.77919,12.97706 34.06714,19.64453 5.94535,3.50897 11.93132,6.94343 17.93286,10.35547 11.39674,6.47936 22.77919,12.97706 34.06714,19.64453 5.94649,3.50964 11.93418,6.94347 17.93725,10.35547 2.30976,1.31603 4.61594,2.63821 6.92188,3.96094 8.33708,4.7797 16.68337,9.53775 25.09375,14.1875 13.7975,7.63227 27.47171,15.47796 41.04809,23.49658 5.94493,3.50897 11.93067,6.94312 17.93189,10.35498 11.39674,6.47936 22.77919,12.97706 34.06714,19.64453 5.94535,3.50897 11.93132,6.94343 17.93286,10.35547 11.39674,6.47936 22.77919,12.97706 34.06714,19.64453 5.94535,3.50897 11.93132,6.94343 17.93286,10.35547 11.39674,6.47936 22.77919,12.97706 34.06714,19.64453 5.94535,3.50897 11.93132,6.94343 17.93286,10.35547 11.39674,6.47936 22.77919,12.97706 34.06714,19.64453 5.94535,3.50897 11.93132,6.94343 17.93286,10.35547 11.39674,6.47936 22.77919,12.97706 34.06714,19.64453 5.94535,3.50897 11.93132,6.94343 17.93286,10.35547 11.39674,6.47936 22.77919,12.97706 34.06714,19.64453 5.94535,3.50897 11.93132,6.94343 17.93286,10.35547 13.39934,7.6179 26.75344,15.30157 40.02002,23.14844 7.975,4.71094 15.94985,9.41832 24,14 1.1189,0.64066 2.23781,1.28133 3.39062,1.9414 1.89688,1.08567 3.79727,2.16362 5.70508,3.22998 24.20871,13.53819 24.20871,13.53819 28.2832,25.46924 1.22997,4.67232 1.74672,8.92212 1.7499,13.76534 0.003,1.30448 0.007,2.60896 0.01,3.95298 -10e-4,1.44882 -0.003,2.89764 -0.004,4.34647 0.002,1.54451 0.004,3.08901 0.007,4.63352 0.006,4.26515 0.007,8.53028 0.006,12.79543 1.7e-4,4.63233 0.006,9.26465 0.0112,13.89698 0.009,9.19701 0.0132,18.39402 0.0155,27.59103 0.003,11.01224 0.0117,22.02446 0.0204,33.0367 0.0209,26.61758 0.0313,53.23516 0.0401,79.85275 0.004,12.58739 0.009,25.17479 0.0147,37.76218 0.0176,42.39803 0.0327,84.79606 0.04,127.19409 5.8e-4,3.37969 0.001,6.75937 0.002,10.13906 1.2e-4,0.67042 2.4e-4,1.34084 3.6e-4,2.03158 10e-4,6.79234 0.002,13.58468 0.004,20.37702 2.5e-4,1.36189 4.9e-4,2.72377 7.4e-4,4.08566 0.008,43.74329 0.0302,87.48655 0.0627,131.22983 0.0348,46.90852 0.0555,93.81692 0.0588,140.72542 4.2e-4,5.0722 9e-4,10.1445 0.001,15.2167 1.3e-4,1.249 2.5e-4,2.4979 3.8e-4,3.7848 0.002,20.1202 0.018,40.2405 0.0385,60.3608 0.0202,20.2137 0.0257,40.4274 0.0162,60.6411 -0.005,12.0156 7.2e-4,24.0311 0.0225,36.0467 0.0135,8.0218 0.0125,16.0436 -4e-4,24.0654 -0.007,4.5735 -0.007,9.1468 0.01,13.7202 0.0154,4.1617 0.0123,8.3228 -0.005,12.4844 -0.003,1.4952 3.9e-4,2.9905 0.0115,4.4857 0.0705,10.1623 -0.51018,19.0573 -7.63629,26.825 -7.46048,6.7758 -16.13573,11.7534 -25,16.4375 -5.75965,3.066 -11.44546,6.1505 -16.94825,9.6597 -3.43901,2.1692 -6.96714,4.1849 -10.48925,6.2153 -0.8043,0.465 -1.60859,0.9299 -2.43726,1.409 -7.60574,4.3858 -15.24999,8.7032 -22.90674,12.9992 -5.28851,2.9746 -10.52104,6.0235 -15.71484,9.1604 -3.66512,2.2056 -7.36318,4.3528 -11.06616,6.4939 -0.79527,0.4605 -1.59055,0.9209 -2.40992,1.3953 -7.57178,4.3725 -15.18425,8.6724 -22.80957,12.9507 -5.28832,2.9745 -10.52071,6.0233 -15.71435,9.1601 -3.66512,2.2056 -7.36318,4.3528 -11.06616,6.4939 -0.79527,0.4605 -1.59055,0.9209 -2.40992,1.3953 -7.57178,4.3725 -15.18425,8.6724 -22.80957,12.9507 -5.28832,2.9745 -10.52071,6.0233 -15.71435,9.1601 -3.66512,2.2056 -7.36318,4.3528 -11.06616,6.4939 -0.79527,0.4605 -1.59055,0.9209 -2.40992,1.3953 -7.57178,4.3725 -15.18425,8.6724 -22.80957,12.9507 -5.28832,2.9745 -10.52071,6.0233 -15.71435,9.1601 -3.66512,2.2056 -7.36318,4.3528 -11.06616,6.4939 -0.79527,0.4605 -1.59055,0.9209 -2.40992,1.3953 -7.57178,4.3725 -15.18425,8.6724 -22.80957,12.9507 -6.92624,3.8958 -13.74195,7.9533 -20.53662,12.0732 -7.24509,4.375 -14.60791,8.5246 -21.98999,12.6629 -5.45264,3.0666 -10.85332,6.1996 -16.20752,9.435 -3.65804,2.2027 -7.34992,4.3455 -11.04638,6.4829 -0.79527,0.4605 -1.59055,0.9209 -2.40992,1.3953 -7.57178,4.3725 -15.18425,8.6724 -22.80957,12.9507 -5.28832,2.9745 -10.52071,6.0233 -15.71435,9.1601 -3.66512,2.2056 -7.36318,4.3528 -11.06616,6.4939 -0.79527,0.4605 -1.59055,0.9209 -2.40992,1.3953 -7.57178,4.3725 -15.18425,8.6724 -22.80957,12.9507 -5.27343,2.9661 -10.49141,6.0057 -15.67041,9.1338 -10.08968,6.0713 -20.3102,11.9194 -30.70776,17.446 -5.17739,2.7798 -10.28571,5.6847 -15.40234,8.5742 -0.96261,0.5426 -1.92522,1.0851 -2.917,1.6441 -5.38969,3.0501 -10.72845,6.1702 -16.03003,9.3708 -3.66116,2.2019 -7.35457,4.3466 -11.05297,6.4851 -0.79527,0.4605 -1.59055,0.9209 -2.40992,1.3953 -7.57178,4.3725 -15.18425,8.6724 -22.80957,12.9507 -5.28832,2.9745 -10.52071,6.0233 -15.71435,9.1601 -3.66512,2.2056 -7.36318,4.3528 -11.06616,6.4939 -0.79527,0.4605 -1.59055,0.9209 -2.40992,1.3953 -7.57178,4.3725 -15.18425,8.6724 -22.80957,12.9507 -5.28832,2.9745 -10.52071,6.0233 -15.71435,9.1601 -3.66512,2.2056 -7.36318,4.3528 -11.06616,6.4939 -1.19291,0.6907 -1.19291,0.6907 -2.40992,1.3953 -7.57178,4.3725 -15.18425,8.6724 -22.80957,12.9507 -5.28832,2.9745 -10.52071,6.0233 -15.71435,9.1601 -3.66512,2.2056 -7.36318,4.3528 -11.066164,6.4939 -1.192906,0.6907 -1.192906,0.6907 -2.409912,1.3953 -7.571785,4.3725 -15.184252,8.6724 -22.80957,12.9507 -5.288324,2.9745 -10.52071,6.0233 -15.714356,9.1601 -3.665121,2.2056 -7.363174,4.3528 -11.066162,6.4939 -1.192906,0.6907 -1.192906,0.6907 -2.409912,1.3953 -7.571785,4.3725 -15.184252,8.6724 -22.80957,12.9507 -5.325414,2.9954 -10.588112,6.074 -15.8183596,9.2324 -3.012938,1.8003 -6.06322921,3.5001 -9.1496582,5.1716 -1.6048828,0.876 -1.6048828,0.876 -3.2421874,1.7696 -3.9436848,1.9397 -7.1359138,2.5825 -11.5078128,2.6679 -0.776015,0.026 -1.552031,0.052 -2.351562,0.078 -8.910106,-0.967 -16.213324,-4.7793 -23.835938,-9.2657 -0.993384,-0.5734 -1.986767,-1.1467 -3.010254,-1.7375 -2.055983,-1.1871 -4.109695,-2.3781 -6.161132,-3.573 -3.739978,-2.1724 -7.499672,-4.309 -11.260743,-6.4446 -7.975882,-4.5328 -15.905762,-9.1393 -23.804687,-13.8047 -5.944537,-3.5087 -11.92986,-6.9426 -17.93066,-10.3542 -11.39674,-6.4794 -22.7792,-12.9771 -34.06714,-19.6446 -5.94536,-3.5089 -11.93133,-6.9434 -17.93286,-10.3554 -11.39674,-6.4794 -22.7792,-12.9771 -34.06714,-19.6446 -5.94536,-3.5089 -11.93133,-6.9434 -17.93286,-10.3554 -11.39674,-6.4794 -22.7792,-12.9771 -34.06714,-19.6446 -5.94536,-3.5089 -11.93133,-6.9434 -17.93286,-10.3554 -11.39674,-6.4794 -22.7792,-12.9771 -34.06714,-19.6446 -7.44455,-4.3937 -14.95762,-8.6656 -22.47339,-12.936 -2.78567,-1.5836 -5.5701,-3.1695 -8.35449,-4.7554 -1.32016,-0.749 -1.32016,-0.749 -2.667,-1.5131 -3.87571,-2.2083 -7.7124,-4.4391 -11.46582,-6.8501 -3.68195,-2.3328 -7.50955,-4.2435 -11.42138,-6.1587 -4.30486,-2.1611 -8.46263,-4.5708 -12.6333,-6.9781 -0.90976,-0.5225 -1.81952,-1.0451 -2.75684,-1.5835 -8.4285,-4.8505 -16.81068,-9.7783 -25.18066,-14.729 -9.62266,-5.6842 -19.26398,-11.3277 -28.97998,-16.8515 -11.39674,-6.4794 -22.7792,-12.9771 -34.06714,-19.6446 -5.94536,-3.5089 -11.93133,-6.9434 -17.93286,-10.3554 -11.39674,-6.4794 -22.7792,-12.9771 -34.06714,-19.6446 -5.94536,-3.5089 -11.93133,-6.9434 -17.93286,-10.3554 -11.39674,-6.4794 -22.7792,-12.9771 -34.06714,-19.6446 -5.94536,-3.5089 -11.93133,-6.9434 -17.93286,-10.3554 -11.39674,-6.4794 -22.7792,-12.9771 -34.06714,-19.6446 -5.94536,-3.5089 -11.93133,-6.9434 -17.93286,-10.3554 -11.39674,-6.4794 -22.7792,-12.9771 -34.06714,-19.6446 -5.94536,-3.5089 -11.93133,-6.9434 -17.93286,-10.3554 -11.39674,-6.4794 -22.7792,-12.9771 -34.06714,-19.6446 -5.94536,-3.5089 -11.93133,-6.9434 -17.93286,-10.3554 -11.39674,-6.4794 -22.7792,-12.9771 -34.06714,-19.6446 -7.45484,-4.3998 -14.97665,-8.6807 -22.50562,-12.9521 -2.81682,-1.5987 -5.63206,-3.2002 -8.44726,-4.8018 -1.3453,-0.7616 -1.3453,-0.7616 -2.71778,-1.5385 -9.62133,-5.477 -17.98071,-10.2398 -21.73925,-21.2193 -1.23467,-4.53 -1.66869,-8.6978 -1.67177,-13.3981 -0.003,-1.3045 -0.007,-2.609 -0.01,-3.953 10e-4,-1.4488 0.003,-2.8976 0.005,-4.3465 -0.002,-1.5445 -0.004,-3.089 -0.007,-4.6335 -0.006,-4.2651 -0.007,-8.5303 -0.006,-12.7954 -1.6e-4,-4.6324 -0.006,-9.2647 -0.0112,-13.897 -0.009,-9.197 -0.0132,-18.394 -0.0155,-27.591 -0.003,-11.0123 -0.0117,-22.0245 -0.0204,-33.0367 -0.0208,-26.6176 -0.0313,-53.2352 -0.0401,-79.8528 -0.004,-12.5874 -0.009,-25.1748 -0.0147,-37.7622 -0.0176,-42.398 -0.0327,-84.796 -0.04,-127.1941 -5.9e-4,-3.3796 -10e-4,-6.7593 -0.002,-10.139 -1.2e-4,-0.6704 -2.4e-4,-1.3409 -3.6e-4,-2.0316 -0.001,-6.79234 -0.002,-13.58468 -0.004,-20.37702 -2.5e-4,-1.36188 -4.9e-4,-2.72377 -7.3e-4,-4.08566 -0.008,-43.74328 -0.0302,-87.48654 -0.0627,-131.22982 -0.0348,-46.90848 -0.0555,-93.81694 -0.0588,-140.72544 -4.2e-4,-5.07223 -9e-4,-10.14447 -10e-4,-15.21671 -1.2e-4,-1.24896 -2.5e-4,-2.49792 -3.7e-4,-3.78473 -0.002,-20.12028 -0.018,-40.24053 -0.0385,-60.36081 -0.0202,-20.21371 -0.0258,-40.42739 -0.0162,-60.64112 0.005,-12.0156 -7.2e-4,-24.03108 -0.0225,-36.04667 -0.0135,-8.02185 -0.0125,-16.04361 4e-4,-24.06546 0.007,-4.57349 0.007,-9.14675 -0.01,-13.72022 -0.0154,-4.16162 -0.0123,-8.32279 0.005,-12.48439 0.003,-1.49521 -4e-4,-2.99046 -0.0115,-4.48564 -0.0913,-13.15457 2.22041,-21.91236 11.4527,-31.49304 4.89207,-4.47059 10.75994,-7.32475 16.60401,-10.34912 4.83641,-2.55242 9.57416,-5.28357 14.32959,-7.98291 0.95028,-0.5348 1.90056,-1.0696 2.87963,-1.62061 5.3402,-3.01069 10.62551,-6.09604 15.8733,-9.26489 3.66314,-2.20369 7.35887,-4.34965 11.05957,-6.4895 1.1929,-0.69066 1.1929,-0.69066 2.40991,-1.39527 7.57178,-4.37246 15.18425,-8.67236 22.80957,-12.95068 5.28832,-2.97454 10.52071,-6.02332 15.71435,-9.16016 3.66513,-2.20554 7.36318,-4.35271 11.06617,-6.49389 1.1929,-0.69066 1.1929,-0.69066 2.40991,-1.39527 7.57178,-4.37246 15.18425,-8.67236 22.80957,-12.95068 5.28832,-2.97454 10.52071,-6.02332 15.71435,-9.16016 3.66513,-2.20554 7.36318,-4.35271 11.06617,-6.49389 0.79527,-0.46044 1.59054,-0.92088 2.40991,-1.39527 7.57178,-4.37246 15.18425,-8.67236 22.80957,-12.95068 5.28832,-2.97454 10.52071,-6.02332 15.71435,-9.16016 3.66513,-2.20554 7.36318,-4.35271 11.06617,-6.49389 0.79527,-0.46044 1.59054,-0.92088 2.40991,-1.39527 7.57178,-4.37246 15.18425,-8.67236 22.80957,-12.95068 5.28832,-2.97454 10.52071,-6.02332 15.71435,-9.16016 3.66513,-2.20554 7.36318,-4.35271 11.06617,-6.49389 1.1929,-0.69066 1.1929,-0.69066 2.40991,-1.39527 7.57178,-4.37246 15.18425,-8.67236 22.80957,-12.95068 5.28832,-2.97454 10.52071,-6.02332 15.71435,-9.16016 3.66513,-2.20554 7.36318,-4.35271 11.06617,-6.49389 1.1929,-0.69066 1.1929,-0.69066 2.40991,-1.39527 7.57178,-4.37246 15.18425,-8.67236 22.80957,-12.95068 5.28832,-2.97454 10.52071,-6.02332 15.71435,-9.16016 3.66513,-2.20554 7.36318,-4.35271 11.06617,-6.49389 1.1929,-0.69066 1.1929,-0.69066 2.40991,-1.39527 7.57178,-4.37246 15.18425,-8.67236 22.80957,-12.95068 5.28832,-2.97454 10.52071,-6.02332 15.71435,-9.16016 3.66513,-2.20554 7.36318,-4.35271 11.06617,-6.49389 1.1929,-0.69066 1.1929,-0.69066 2.40991,-1.39527 7.57178,-4.37246 15.18425,-8.67236 22.80957,-12.95068 4.50733,-2.53525 8.97911,-5.10984 13.40161,-7.79077 3.49613,-2.11294 7.02707,-3.99187 10.69141,-5.80078 3.76927,-2.0701 7.50908,-4.19169 11.25,-6.3125 0.98613,-0.55623 1.97226,-1.11246 2.98828,-1.68555 5.50875,-3.11727 10.96734,-6.30255 16.38525,-9.57495 3.78561,-2.27315 7.6124,-4.47375 11.43897,-6.677 6.08205,-3.50943 12.14539,-7.0473 18.1875,-10.625 7.78937,-4.6068 15.66377,-9.05888 23.55761,-13.48389 5.32373,-2.99074 10.59158,-6.05446 15.81812,-9.21191 3.66342,-2.20521 7.36019,-4.35134 11.06177,-6.4917 0.79527,-0.46044 1.59054,-0.92088 2.40991,-1.39527 7.57178,-4.37246 15.18425,-8.67236 22.80957,-12.95068 5.28832,-2.974536 10.52071,-6.023319 15.71435,-9.160156 3.66513,-2.205543 7.36318,-4.352719 11.06617,-6.493897 0.79527,-0.460437 1.59054,-0.920874 2.40991,-1.395263 7.57178,-4.37246 15.18425,-8.672364 22.80957,-12.950684 5.28832,-2.974536 10.52071,-6.023319 15.71435,-9.160156 3.66513,-2.205543 7.36318,-4.352719 11.06617,-6.493897 0.79527,-0.460437 1.59054,-0.920874 2.40991,-1.395263 7.57178,-4.37246 15.18425,-8.672364 22.80957,-12.950684 5.288323,-2.974536 10.520709,-6.023319 15.714354,-9.160156 3.665121,-2.205543 7.363174,-4.352719 11.066162,-6.493897 0.795271,-0.460437 1.590542,-0.920874 2.409912,-1.395263 7.571785,-4.37246 15.184252,-8.672364 22.809571,-12.9506838 5.389628,-3.0315165 10.718924,-6.14018992 15.99707,-9.3623047 C -21.444374,-10.207755 -10.42101,-6.3842558 0,0 Z m -24.226562,201.16016 c -0.732913,0.42966 -1.465826,0.85932 -2.220948,1.302 -0.799782,0.47397 -1.599565,0.94794 -2.423584,1.43628 -1.720665,1.00899 -3.442052,2.01674 -5.164062,3.02343 -0.914268,0.53464 -1.828535,1.06928 -2.770508,1.62012 -5.893867,3.41793 -11.840863,6.74278 -17.782959,10.07593 -6.92655,3.89691 -13.743214,7.95431 -20.538574,12.07471 -7.245093,4.37492 -14.607911,8.52455 -21.98999,12.66284 -5.452643,3.06665 -10.853323,6.19964 -16.207523,9.43506 -3.65804,2.2027 -7.34992,4.3455 -11.04638,6.48291 -0.79527,0.46043 -1.59055,0.92087 -2.40992,1.39526 -7.57178,4.37246 -15.18425,8.67236 -22.80957,12.95068 -5.28832,2.97454 -10.52071,6.02332 -15.71435,9.16016 -3.66512,2.20554 -7.36318,4.35272 -11.06616,6.4939 -0.79527,0.46043 -1.59055,0.92087 -2.40992,1.39526 -7.57178,4.37246 -15.18425,8.67236 -22.80957,12.95068 -5.28832,2.97454 -10.52071,6.02332 -15.71435,9.16016 -3.66512,2.20554 -7.36318,4.35272 -11.06616,6.4939 -0.79527,0.46043 -1.59055,0.92087 -2.40992,1.39526 -7.57178,4.37246 -15.18425,8.67236 -22.80957,12.95068 -5.28832,2.97454 -10.52071,6.02332 -15.71435,9.16016 -3.66512,2.20554 -7.36318,4.35272 -11.06616,6.4939 -1.19291,0.69065 -1.19291,0.69065 -2.40992,1.39526 -7.57178,4.37246 -15.18425,8.67236 -22.80957,12.95068 -5.28832,2.97454 -10.52071,6.02332 -15.71435,9.16016 -3.66512,2.20554 -7.36318,4.35272 -11.06616,6.4939 -1.19291,0.69065 -1.19291,0.69065 -2.40992,1.39526 -7.57178,4.37246 -15.18425,8.67236 -22.80957,12.95068 -5.28832,2.97454 -10.52071,6.02332 -15.71435,9.16016 -3.66512,2.20554 -7.36318,4.35272 -11.06616,6.4939 -1.19291,0.69065 -1.19291,0.69065 -2.40992,1.39526 -7.57178,4.37246 -15.18425,8.67236 -22.80957,12.95068 -5.28832,2.97454 -10.52071,6.02332 -15.71435,9.16016 -3.66512,2.20554 -7.36318,4.35272 -11.06616,6.4939 -0.79527,0.46043 -1.59055,0.92087 -2.40992,1.39526 -7.57178,4.37246 -15.18425,8.67236 -22.80957,12.95068 -5.28832,2.97454 -10.52071,6.02332 -15.71435,9.16016 -3.66512,2.20554 -7.36318,4.35272 -11.06616,6.4939 -0.79527,0.46043 -1.59055,0.92087 -2.40992,1.39526 -7.57178,4.37246 -15.18425,8.67236 -22.80957,12.95068 -5.28832,2.97454 -10.52071,6.02332 -15.71435,9.16016 -3.66512,2.20554 -7.36318,4.35272 -11.06616,6.4939 -1.19291,0.69065 -1.19291,0.69065 -2.40992,1.39526 -7.57178,4.37246 -15.18425,8.67236 -22.80957,12.95068 -5.28832,2.97454 -10.52071,6.02332 -15.71435,9.16016 -3.66512,2.20554 -7.36318,4.35272 -11.06616,6.4939 -1.19291,0.69065 -1.19291,0.69065 -2.40992,1.39526 -7.57178,4.37246 -15.18425,8.67236 -22.80957,12.95068 -6.09453,3.42801 -12.13037,6.93849 -18.09301,10.59156 -0.97356,0.41184 -0.97356,0.41184 -1.96678,0.83201 -2.41911,1.16532 -4.14169,2.25083 -6.03322,4.16799 -1.22,3.92261 -1.07731,7.76153 -1.01232,11.84298 -0.0122,1.2196 -0.0245,2.4392 -0.0371,3.69576 -0.0259,3.39844 -0.0158,6.79338 0.009,10.19161 0.0185,3.69153 -0.009,7.38275 -0.0313,11.07422 -0.032,6.47382 -0.0341,12.94713 -0.0168,19.421 0.0257,9.62664 0.006,19.25281 -0.023,28.87942 -0.0499,17.1911 -0.0536,34.38197 -0.0375,51.57312 0.0141,15.04459 0.0143,30.0891 2.7e-4,45.13369 -0.002,2.01601 -0.004,4.03202 -0.005,6.04803 -0.003,3.03773 -0.006,6.07547 -0.008,9.1132 -0.026,28.25193 -0.0362,56.50384 -0.0129,84.75578 8.8e-4,1.06558 0.002,2.13116 0.003,3.22902 0.007,8.65393 0.0149,17.30785 0.0226,25.96177 0.0297,33.76187 0.0121,67.52341 -0.0439,101.28523 -0.0628,37.91013 -0.0928,75.82003 -0.0724,113.73023 0.002,4.0398 0.004,8.0796 0.006,12.1193 4.9e-4,0.9948 9.9e-4,1.9895 10e-4,3.0144 0.007,15.0362 -0.0118,30.0724 -0.043,45.1086 -0.0355,17.094 -0.0359,34.1875 0.0107,51.2814 0.0251,9.5728 0.0224,19.1446 -0.0198,28.7174 -0.0254,6.3884 -0.0146,12.7762 0.026,19.1645 0.0221,3.6443 0.0283,7.2868 -0.009,10.931 -0.0401,3.9208 -0.003,7.8387 0.0414,11.7595 -0.024,1.1379 -0.048,2.2759 -0.0727,3.4483 0.0739,3.1475 0.22345,5.5691 1.32551,8.5205 3.03385,2.76 6.27382,4.3517 10,6 2.04399,1.2671 4.08598,2.5375 6.125,3.8125 6.05889,3.7357 12.22645,7.2392 18.4414,10.7071 12.24906,6.8371 24.40296,13.8427 36.4812,20.9768 5.94515,3.5089 11.931,6.9433 17.93238,10.3552 11.39674,6.4794 22.77919,12.9771 34.06714,19.6445 5.94535,3.509 11.93132,6.9435 17.93286,10.3555 11.39674,6.4794 22.77919,12.9771 34.06714,19.6445 5.94535,3.509 11.93132,6.9435 17.93286,10.3555 11.39385,6.4777 22.77512,12.9712 34.05835,19.6401 4.30054,2.5395 8.62047,5.0389 12.96167,7.5083 5.0484,2.8717 10.06265,5.7947 15.0625,8.75 6.44631,3.8087 12.93084,7.5455 19.4375,11.25 6.50665,3.7046 12.99106,7.4416 19.4375,11.25 6.64757,3.9268 13.33051,7.7857 20.04248,11.6016 11.39674,6.4794 22.77919,12.9771 34.06714,19.6445 5.94535,3.509 11.93132,6.9435 17.93286,10.3555 11.39674,6.4794 22.77919,12.9771 34.06714,19.6445 5.94535,3.509 11.93132,6.9435 17.93286,10.3555 11.39674,6.4794 22.77919,12.9771 34.06714,19.6445 5.94535,3.509 11.93132,6.9435 17.93286,10.3555 11.39674,6.4794 22.77919,12.9771 34.06714,19.6445 5.94535,3.509 11.93132,6.9435 17.93286,10.3555 11.39674,6.4794 22.779194,12.9771 34.067135,19.6445 5.945355,3.509 11.931328,6.9435 17.932862,10.3555 10.792002,6.1356 21.578918,12.2758 32.270019,18.5859 0.698189,0.4088 1.396377,0.8176 2.115723,1.2388 2.852503,1.6708 5.68182,3.3539 8.474121,5.1245 4.288867,2.723 4.288867,2.723 9.222656,2.8242 2.254875,-1.2473 4.412686,-2.5364 6.585938,-3.914 4.2508557,-2.6669 8.5668941,-5.2049 12.9140622,-7.711 0.8042945,-0.4649 1.6085889,-0.9299 2.4372559,-1.4089 7.6057429,-4.3858 15.2499929,-8.7032 22.9067379,-12.9993 5.288509,-2.9745 10.521043,-6.0234 15.714844,-9.1604 3.665121,-2.2055 7.363174,-4.3527 11.066162,-6.4939 1.192907,-0.6906 1.192907,-0.6906 2.409912,-1.3952 7.571785,-4.3725 15.184252,-8.6724 22.809571,-12.9507 5.288324,-2.9745 10.52071,-6.0233 15.714355,-9.1602 3.665121,-2.2055 7.363176,-4.3527 11.066166,-6.4939 1.1929,-0.6906 1.1929,-0.6906 2.40991,-1.3952 7.57178,-4.3725 15.18425,-8.6724 22.80957,-12.9507 5.28832,-2.9745 10.52071,-6.0233 15.71435,-9.1602 3.66513,-2.2055 7.36318,-4.3527 11.06617,-6.4939 1.1929,-0.6906 1.1929,-0.6906 2.40991,-1.3952 7.57178,-4.3725 15.18425,-8.6724 22.80957,-12.9507 5.28832,-2.9745 10.52071,-6.0233 15.71435,-9.1602 3.66513,-2.2055 7.36318,-4.3527 11.06617,-6.4939 1.1929,-0.6906 1.1929,-0.6906 2.40991,-1.3952 7.57178,-4.3725 15.18425,-8.6724 22.80957,-12.9507 5.28832,-2.9745 10.52071,-6.0233 15.71435,-9.1602 3.66513,-2.2055 7.36318,-4.3527 11.06617,-6.4939 1.1929,-0.6906 1.1929,-0.6906 2.40991,-1.3952 7.57178,-4.3725 15.18425,-8.6724 22.80957,-12.9507 5.28832,-2.9745 10.52071,-6.0233 15.71435,-9.1602 3.66513,-2.2055 7.36318,-4.3527 11.06617,-6.4939 1.1929,-0.6906 1.1929,-0.6906 2.40991,-1.3952 7.57178,-4.3725 15.18425,-8.6724 22.80957,-12.9507 5.28832,-2.9745 10.52071,-6.0233 15.71435,-9.1602 3.66513,-2.2055 7.36318,-4.3527 11.06617,-6.4939 1.1929,-0.6906 1.1929,-0.6906 2.40991,-1.3952 7.57178,-4.3725 15.18425,-8.6724 22.80957,-12.9507 5.28832,-2.9745 10.52071,-6.0233 15.71435,-9.1602 3.66513,-2.2055 7.36318,-4.3527 11.06617,-6.4939 0.79527,-0.4604 1.59054,-0.9208 2.40991,-1.3952 7.57178,-4.3725 15.18425,-8.6724 22.80957,-12.9507 5.28832,-2.9745 10.52071,-6.0233 15.71435,-9.1602 3.66513,-2.2055 7.36318,-4.3527 11.06617,-6.4939 0.79527,-0.4604 1.59054,-0.9208 2.40991,-1.3952 7.57178,-4.3725 15.18425,-8.6724 22.80957,-12.9507 5.27987,-2.9698 10.50294,-6.0147 15.68799,-9.147 3.79491,-2.2794 7.63125,-4.4857 11.46753,-6.6946 6.08205,-3.5094 12.14539,-7.0473 18.1875,-10.625 7.78937,-4.6068 15.66377,-9.0588 23.55761,-13.4838 5.29475,-2.9745 10.53267,-6.0226 15.73023,-9.1636 4.93768,-2.9631 9.9413,-5.8136 14.93286,-8.6846 0.80244,-0.4628 1.60488,-0.9255 2.43164,-1.4023 0.71664,-0.4122 1.43328,-0.8244 2.17163,-1.2491 1.67534,-0.993 3.30559,-2.0613 4.92603,-3.1416 0.45836,-2.2231 0.45836,-2.2231 0.38755,-4.8558 0.0151,-1.5518 0.0151,-1.5518 0.0305,-3.1349 -0.004,-1.1476 -0.008,-2.2952 -0.0126,-3.4775 0.011,-1.8233 0.011,-1.8233 0.0223,-3.6835 0.0175,-3.3999 0.0213,-6.7994 0.0197,-10.1994 10e-4,-3.6891 0.02,-7.3781 0.0364,-11.0672 0.0298,-7.3284 0.0432,-14.6568 0.0517,-21.9853 0.0109,-8.7733 0.039,-17.5466 0.0673,-26.3199 0.0674,-21.2085 0.1033,-42.417 0.13377,-63.6256 0.0145,-10.0288 0.0318,-20.0575 0.049,-30.0863 0.0587,-34.3145 0.108,-68.6289 0.13428,-102.94336 0.007,-8.64994 0.0135,-17.29988 0.0205,-25.94982 10e-4,-1.61201 10e-4,-1.61201 0.003,-3.25659 0.0279,-34.85218 0.10576,-69.70402 0.21245,-104.55605 0.10943,-35.8132 0.17706,-71.62622 0.18871,-107.4396 0.002,-5.05565 0.004,-10.1113 0.006,-15.16696 6.5e-4,-1.49255 6.5e-4,-1.49255 10e-4,-3.01526 0.008,-16.03068 0.0598,-32.06094 0.12716,-48.09148 0.0666,-16.10636 0.0854,-32.21223 0.0553,-48.31871 -0.0164,-9.57486 0.003,-19.14805 0.0749,-28.72266 0.0442,-6.39243 0.0413,-12.7837 -1.7e-4,-19.17614 -0.0223,-3.64541 -0.0239,-7.28763 0.0317,-10.93275 0.91051,-13.46853 0.91051,-13.46853 -2.90908,-25.90179 -3.4148,-3.29495 -7.23357,-4.6612 -11.73143,-6.09339 -1.73215,-0.95272 -3.4465,-1.94003 -5.125,-2.98438 -1.62376,-0.92406 -3.24878,-1.84591 -4.875,-2.76562 -1.81772,-1.03384 -3.63543,-2.06769 -5.45313,-3.10157 -0.91588,-0.51981 -1.83176,-1.03962 -2.77539,-1.57519 -4.51043,-2.56036 -9.01684,-5.12772 -13.52148,-7.69824 -0.87085,-0.49694 -1.74169,-0.99387 -2.63892,-1.50586 -6.24919,-3.57331 -12.46177,-7.20524 -18.65991,-10.86621 -5.94475,-3.5087 -11.93019,-6.94278 -17.93115,-10.3545 -11.39386,-6.47772 -22.77512,-12.97116 -34.05835,-19.64013 -4.30054,-2.53948 -8.62047,-5.03891 -12.96167,-7.5083 -5.04841,-2.87168 -10.06266,-5.7947 -15.0625,-8.75 -6.44632,-3.80865 -12.93085,-7.54543 -19.4375,-11.25 -6.50666,-3.70457 -12.99107,-7.44155 -19.4375,-11.25 -6.64758,-3.92672 -13.33052,-7.78563 -20.04248,-11.60157 -11.39674,-6.47936 -22.7792,-12.97705 -34.06714,-19.64453 -5.94536,-3.50896 -11.93133,-6.94343 -17.93286,-10.35547 -11.39674,-6.47936 -22.7792,-12.97705 -34.06714,-19.64453 -5.94536,-3.50896 -11.93133,-6.94343 -17.93286,-10.35547 -11.39674,-6.47936 -22.7792,-12.97705 -34.06714,-19.64453 -5.94536,-3.50896 -11.93133,-6.94343 -17.93286,-10.35547 -11.39674,-6.47936 -22.7792,-12.97705 -34.06714,-19.64453 -5.94536,-3.50896 -11.93133,-6.94343 -17.93286,-10.35547 -11.39674,-6.47936 -22.7792,-12.97705 -34.06714,-19.64453 -5.94536,-3.50896 -11.93133,-6.94343 -17.93286,-10.35547 -11.39674,-6.47936 -22.7792,-12.97705 -34.06714,-19.64453 C 99.323932,267.20588 93.33796,263.77141 87.336426,260.35937 75.939686,253.88001 64.557228,247.38232 53.269287,240.71484 47.323932,237.20588 41.33796,233.77141 35.336426,230.35937 13.852594,218.14522 13.852594,218.14522 3.3789063,211.96094 c -5.3243436,-3.14055 -10.6493825,-6.27936 -16.0000003,-9.375 -1.68416,-0.9784 -1.68416,-0.9784 -3.402343,-1.97657 -3.716828,-1.95392 -4.76607,-1.48251 -8.203125,0.55079 z"
         fill="#d10000"
         transform="translate(869.68359,30.789062)"
         id="path1" /><path
         d="m 0,0 c 4.728088,1.3540021 8.4006664,3.8093621 12.507813,6.46875 1.885812,1.1941412 3.772581,2.3867723 5.660156,3.578125 1.00563,0.637441 2.01126,1.274883 3.047363,1.931641 4.955945,3.113987 9.961423,6.145761 14.96933,9.17514 1.776085,1.074431 3.551326,2.150245 5.326324,3.226471 2.412085,1.462439 4.824449,2.924417 7.237061,4.385986 5.984807,3.626115 11.965896,7.258355 17.947265,10.890137 1.175456,0.713623 2.350912,1.427246 3.526368,2.140869 10.127086,6.14869 20.247885,12.307679 30.3667,18.469971 4.76438,2.901254 9.52945,5.801392 14.29443,8.70166 1.91667,1.166662 3.83334,2.333328 5.75,3.5 0.94875,0.5775 1.8975,1.155 2.875,1.75 2.875,1.75 5.75,3.5 8.625,5.25 0.94851,0.577339 1.89702,1.154678 2.87427,1.749512 1.91916,1.168211 3.83827,2.336506 5.75732,3.504883 4.75314,2.893704 9.50711,5.786025 14.26294,8.675292 10.03308,6.097483 20.04881,12.221733 30.04297,18.382813 12.55127,7.73559 25.14927,15.39233 37.7583,23.0332 5.95763,3.61054 11.91205,7.22636 17.8667,10.8418 0.58372,0.35437 1.16743,0.70874 1.76883,1.07385 10.71316,6.504 21.42007,13.01822 32.12424,19.53699 4.76438,2.90125 9.52945,5.80139 14.29443,8.70166 1.91667,1.16666 3.83334,2.33333 5.75,3.5 0.94875,0.5775 1.8975,1.155 2.875,1.75 2.875,1.75 5.75,3.5 8.625,5.25 0.94851,0.57734 1.89702,1.15468 2.87427,1.74951 1.91916,1.16821 3.83827,2.33651 5.75732,3.50488 4.75314,2.89371 9.50711,5.78603 14.26294,8.6753 10.03308,6.09748 20.04881,12.22173 30.04297,18.38281 12.55127,7.73559 25.14927,15.39233 37.7583,23.0332 5.95763,3.61054 11.91205,7.22636 17.8667,10.8418 0.58372,0.35437 1.16743,0.70874 1.76883,1.07385 10.71316,6.504 21.42007,13.01822 32.12424,19.53699 4.76438,2.90125 9.52945,5.80139 14.29443,8.70166 1.91667,1.16666 3.83334,2.33333 5.75,3.5 0.94875,0.5775 1.8975,1.155 2.875,1.75 2.875,1.75 5.75,3.5 8.625,5.25 0.94851,0.57734 1.89702,1.15468 2.87427,1.74951 1.91916,1.16821 3.83827,2.33651 5.75732,3.50488 4.75314,2.89371 9.50711,5.78603 14.26294,8.6753 10.03308,6.09748 20.04881,12.22173 30.04297,18.38281 12.55127,7.73559 25.14927,15.39233 37.7583,23.0332 5.95763,3.61054 11.91205,7.22636 17.8667,10.8418 0.87557,0.53156 0.87557,0.53156 1.76883,1.07385 10.71316,6.504 21.42007,13.01822 32.12424,19.53699 4.76438,2.90125 9.52945,5.80139 14.29443,8.70166 1.91667,1.16666 3.83334,2.33333 5.75,3.5 0.94875,0.5775 1.8975,1.155 2.875,1.75 2.875,1.75 5.75,3.5 8.625,5.25 0.94851,0.57734 1.89702,1.15468 2.87427,1.74951 1.91916,1.16821 3.83827,2.33651 5.75732,3.50488 4.75314,2.89371 9.50711,5.78603 14.26294,8.6753 10.03308,6.09748 20.04881,12.22173 30.04297,18.38281 9.04334,5.57359 18.10535,11.11501 27.1875,16.625 0.57362,0.34814 1.14723,0.69628 1.73822,1.05496 6.05714,3.67592 12.11751,7.34641 18.18396,11.00694 2.55753,1.54375 5.1138,3.08958 7.66992,4.63564 1.21303,0.73289 2.42668,1.46475 3.641,2.1955 1.69076,1.01748 3.37926,2.03872 5.06768,3.06008 1.43727,0.86674 1.43727,0.86674 2.90357,1.75098 0.96381,0.61327 1.92763,1.22654 2.92065,1.8584 0.88213,0.38522 0.88213,0.38522 1.78208,0.77821 2.27237,1.17904 3.61622,2.20648 5.21792,4.22179 1.10873,4.67286 1.00299,9.36058 0.97827,14.13745 0.0178,1.46519 0.0386,2.93035 0.0622,4.39546 0.0556,3.99766 0.0681,7.99446 0.0731,11.99246 0.0127,4.24519 0.0651,8.48991 0.11273,12.73482 0.0854,8.1636 0.13428,16.327 0.16986,24.49095 0.042,9.33493 0.1202,18.66944 0.20009,28.00411 0.14621,17.24638 0.2502,34.49277 0.33159,51.73957 0.0477,10.052 0.10708,20.10375 0.18448,30.15557 0.0839,10.9221 0.14934,21.84407 0.18962,32.76642 0.0106,2.51884 0.0252,5.03762 0.0406,7.55643 0.0219,3.81607 0.0286,7.63184 0.0215,11.44797 -6.5e-4,1.95782 0.0128,3.91564 0.0269,5.87341 -0.006,1.12472 -0.0122,2.24945 -0.0185,3.40826 6.3e-4,0.96144 10e-4,1.92287 0.002,2.91344 -0.44267,2.81968 -1.1929,3.62053 -3.37422,5.38368 -0.43957,0.48573 -0.87914,0.97147 -1.33203,1.47192 -2.25275,2.06382 -4.71143,3.4469 -7.35547,4.9773 -0.56593,0.32952 -1.13186,0.65904 -1.71495,0.99855 -1.2233,0.71162 -2.44783,1.42114 -3.67344,2.12877 -2.61954,1.5125 -5.23316,3.0351 -7.84719,4.5571 -1.35302,0.78765 -2.70634,1.57477 -4.05996,2.36139 -6.67435,3.88006 -13.31675,7.8126 -19.95446,11.75497 -2.24086,1.32947 -4.48174,2.6589 -6.72265,3.98828 -1.07009,0.63503 -2.14017,1.27005 -3.24268,1.92432 -10.66146,6.32494 -21.32999,12.63774 -32.03076,18.89599 -2.45969,1.43872 -4.91935,2.87748 -7.37891,4.31641 -0.61679,0.36085 -1.23359,0.72169 -1.86908,1.09348 -8.4713,4.95835 -16.91033,9.96641 -25.31842,15.03152 -12.05596,7.26263 -24.19617,14.37645 -36.34532,21.48145 -8.18917,4.79107 -16.35281,9.62533 -24.51747,14.458 -4.5444,2.68912 -9.09093,5.37461 -13.63721,8.06055 -1.83334,1.08332 -3.66667,2.16665 -5.5,3.25 -3.66666,2.16667 -7.33333,4.33333 -11,6.5 -0.90693,0.53593 -1.81387,1.07186 -2.74829,1.62402 -1.83899,1.08666 -3.67802,2.17325 -5.51709,3.25977 -4.49709,2.65699 -8.99356,5.31501 -13.48852,7.97558 -7.89082,4.66896 -15.78462,9.33237 -23.69922,13.96094 -11.54935,6.75504 -23.08576,13.5254 -34.54688,20.42969 -12.05596,7.26263 -24.19617,14.37645 -36.34532,21.48145 -8.18917,4.79107 -16.35281,9.62533 -24.51747,14.458 -4.5444,2.68912 -9.09093,5.37461 -13.63721,8.06055 -1.83334,1.08332 -3.66667,2.16665 -5.5,3.25 -3.66666,2.16667 -7.33333,4.33333 -11,6.5 -0.90693,0.53593 -1.81387,1.07186 -2.74829,1.62402 -1.83899,1.08666 -3.67802,2.17325 -5.51709,3.25977 -4.49709,2.65699 -8.99356,5.31501 -13.48852,7.97558 -7.89082,4.66896 -15.78462,9.33237 -23.69922,13.96094 -12.55829,7.34516 -25.08769,14.72972 -37.54907,22.23874 -9.62838,5.792 -19.31905,11.4756 -29.01929,17.146 -0.89269,0.5219 -0.89269,0.5219 -1.80341,1.0543 -1.61374,0.943 -3.2279,1.8853 -4.8421,2.8276 -2.82798,1.604 -2.82798,1.604 -5.33008,3.4433 -3.35074,1.6329 -4.95535,1.2664 -8.50293,0.2198 -2.99756,-1.5313 -2.99756,-1.5313 -6.14844,-3.5001 -0.56984,-0.3516 -1.13968,-0.7033 -1.72679,-1.0656 -1.21252,-0.7495 -2.4224,-1.5033 -3.6298,-2.261 -3.14403,-1.9728 -6.30709,-3.9147 -9.46762,-5.8609 -0.61702,-0.3811 -1.23403,-0.7623 -1.86974,-1.155 -5.7029,-3.5154 -11.50722,-6.8002 -17.37294,-10.0327 -3.64081,-2.027 -7.21564,-4.15165 -10.78076,-6.30834 -1.323,-0.79699 -2.64616,-1.59369 -3.96948,-2.39014 -0.6697,-0.40322 -1.3394,-0.80643 -2.02939,-1.22186 -3.16744,-1.90266 -6.34344,-3.7908 -9.52066,-5.67707 -0.62447,-0.37077 -1.24894,-0.74154 -1.89234,-1.12355 -1.94717,-1.15573 -3.89459,-2.31103 -5.84204,-3.46629 -1.39934,-0.83046 -2.79867,-1.66095 -4.198,-2.49146 C 173.7546,971.59305 160.5693,963.7799 147.38281,955.96875 132.36322,947.07174 117.34749,938.1683 102.33795,929.25433 88.691584,921.15011 75.038247,913.05769 61.382812,904.96875 46.363219,896.07174 31.347487,887.1683 16.337952,878.25433 2.6915844,870.15011 -10.961753,862.05769 -24.617187,853.96875 -39.636781,845.07174 -54.652513,836.1683 -69.662048,827.25433 -82.210976,819.80185 -94.765582,812.359 -107.32275,804.92041 c -5.59851,-3.31662 -11.19643,-6.6342 -16.79444,-9.95166 -1.66579,-0.9871 -1.66579,-0.9871 -3.36523,-1.99414 -5.1087,-3.02727 -10.21732,-6.05469 -15.32552,-9.08281 -13.70728,-8.12562 -27.41923,-16.24325 -41.13981,-24.34639 -2.71683,-1.60465 -5.43341,-3.20972 -8.14991,-4.81494 -0.9108,-0.53818 -1.8216,-1.07637 -2.76001,-1.63086 -1.83266,-1.08309 -3.66518,-2.16642 -5.49755,-3.25 -4.65401,-2.75166 -9.31082,-5.49837 -13.9729,-8.23633 -0.94875,-0.55816 -1.8975,-1.11633 -2.875,-1.69141 -1.7672,-1.03952 -3.53531,-2.07748 -5.30469,-3.11328 -1.71503,-1.00978 -3.40979,-2.05458 -5.08545,-3.12841 -2.46294,-1.39393 -4.5712,-2.29324 -7.20801,-3.22364 -4.85267,-1.94333 -8.82767,-4.07975 -11.81592,-8.48779 -2.82395,-9.16046 -1.62031,-19.53189 -1.22046,-29.00912 0.16316,-4.25719 0.23848,-8.51591 0.32056,-12.7753 0.11973,-5.96257 0.24994,-11.9244 0.41342,-17.88594 0.492,-18.44231 0.58565,-36.87488 0.62279,-55.32252 0.0252,-11.97615 0.0902,-23.95212 0.15677,-35.9281 0.0509,-9.3267 0.0876,-18.65305 0.0931,-27.9799 0.005,-8.08141 0.0475,-16.16172 0.13308,-24.24269 0.0434,-4.20454 0.07,-8.40751 0.0534,-12.61228 -0.015,-3.90572 0.0163,-7.80829 0.0836,-11.71344 0.0164,-1.42176 0.0159,-2.84384 -0.003,-4.26557 -0.12814,-10.66959 -0.12814,-10.66959 3.52395,-14.62027 2.53763,-1.80522 5.03996,-3.25538 7.82287,-4.64487 1.30135,-0.78346 2.59832,-1.57434 3.88672,-2.37891 1.26481,-0.73154 2.53181,-1.45929 3.80078,-2.18359 6.86377,-3.98039 13.6649,-8.0539 20.4375,-12.1875 0.97308,-0.59385 1.94616,-1.18771 2.94873,-1.79956 1.98943,-1.21464 3.97869,-2.42957 5.96778,-3.64478 2.87342,-1.75374 5.74937,-3.50326 8.62646,-5.25097 10.02602,-6.09105 20.03335,-12.21104 30.01953,-18.36719 12.55127,-7.73559 25.14927,-15.39233 37.7583,-23.0332 5.95763,-3.61054 11.91205,-7.22636 17.8667,-10.8418 0.58372,-0.35437 1.16743,-0.70874 1.76883,-1.07385 10.713157,-6.504 21.420068,-13.01822 32.124239,-19.53699 4.764384,-2.90125 9.529448,-5.80139 14.294434,-8.70166 1.916669,-1.16666 3.833336,-2.33333 5.75,-3.5 11.5,-7 11.5,-7 14.374267,-8.74951 1.919158,-1.16821 3.838266,-2.33651 5.757324,-3.50488 4.753137,-2.89371 9.507104,-5.78603 14.26294,-8.6753 10.0330753,-6.09748 20.0488031,-12.22173 30.042969,-18.38281 11.959432,-7.37084 23.960277,-14.67154 35.97499,-21.95172 4.817453,-2.91937 9.63178,-5.84385 14.444397,-8.77118 2.965848,-1.80364 5.933227,-3.60463 8.904587,-5.39917 5.368531,-3.24421 10.717285,-6.51244 16.015869,-9.87012 0.920391,-0.57516 1.840782,-1.15032 2.789063,-1.74292 1.695575,-1.06084 3.382506,-2.13568 5.058593,-3.22705 0.741211,-0.45979 1.482422,-0.91958 2.246098,-1.39331 0.63349,-0.40501 1.26698,-0.81001 1.91967,-1.22729 2.89148,-0.89249 4.30684,0.0514 6.95923,1.39526 1.63038,0.93343 3.2377,1.9079 4.82422,2.91406 0.93264,0.58781 1.86527,1.17563 2.82617,1.78125 1.00225,0.6368 2.0045,1.2736 3.03711,1.92969 2.17004,1.36804 4.34063,2.7352 6.51172,4.10156 0.5592,0.35242 1.1184,0.70484 1.69455,1.06793 6.00676,3.78179 12.05545,7.49467 18.10623,11.20551 13.36753,8.2088 26.66707,16.52402 39.95899,24.85449 12.39137,7.76401 24.81116,15.47831 37.27246,23.12964 11.29602,6.94174 22.53659,13.97101 33.76855,21.01587 -1.20204,3.60613 -1.96311,3.85073 -5.17187,5.67969 -1.32113,0.76437 -1.32113,0.76437 -2.66895,1.54419 -0.96003,0.54487 -1.92006,1.08974 -2.90918,1.65112 -2.03233,1.17652 -4.06355,2.35495 -6.09375,3.53516 -1.03383,0.59957 -2.06765,1.19915 -3.13281,1.81689 -4.47074,2.62165 -8.87571,5.34359 -13.27344,8.08545 -0.84933,0.52844 -1.69866,1.05687 -2.57373,1.60132 -1.77998,1.1075 -3.55976,2.21534 -5.33935,3.32348 -5.22805,3.24841 -10.46994,6.47434 -15.71192,9.7002 -1.64887,1.01477 -1.64887,1.01477 -3.33105,2.05005 -8.02171,4.93239 -16.06182,9.83389 -24.10987,14.72314 -8.34728,5.07481 -16.66554,10.19615 -24.98168,15.32178 -7.15735,4.40875 -14.32999,8.79137 -21.5149,13.15503 -7.25039,4.4038 -14.48017,8.83857 -21.6875,13.3125 -8.160021,5.06532 -16.353559,10.073 -24.562498,15.05859 -7.328798,4.45419 -14.636684,8.94153 -21.9375,13.44141 -8.255377,5.08823 -16.523931,10.15352 -24.8125,15.1875 -7.354076,4.46698 -14.687677,8.96499 -21.999999,13.5 -1.7109265,1.05991 -3.4218639,2.11981 -5.132813,3.17969 -2.5619264,1.58718 -5.1231855,3.1754 -7.6826172,4.7666 -2.5172797,1.56378 -5.0380141,3.12184 -7.5595703,4.67871 -0.7609497,0.47462 -1.5218995,0.94923 -2.3059085,1.43823 -5.278763,3.24927 -5.278763,3.24927 -7.506591,3.24927 0,41.58 0,83.16 0,126 1.98,0.66 3.96,1.32 5.999999,2 2.463439,1.34808 4.8550133,2.72813 7.2500005,4.1875 1.5135659,0.90621 3.0279432,1.81107 4.54296875,2.71484 0.82806152,0.49484 1.65612305,0.98968 2.50927735,1.49952 5.0591158,2.99701 10.1626364,5.91727 15.2602534,8.84814 8.494344,4.89096 16.97516,9.80387 25.4375,14.75 12.637394,7.38422 25.316754,14.6949 38,22 13.675544,7.87663 27.339608,15.7712 40.965818,23.73291 11.65077,6.80297 23.34322,13.53351 35.03418,20.26709 13.67555,7.87663 27.33961,15.7712 40.96582,23.73291 8.36488,4.88431 16.74756,9.73729 25.14527,14.56494 5.0815,2.92203 10.15698,5.85274 15.20819,8.8268 1.77047,1.04188 3.54291,2.08032 5.31598,3.11778 2.22108,1.30104 4.43846,2.60844 6.65136,3.92334 7.57919,4.42552 14.70342,8.52632 23.71338,7.83423 2.7714,-1.08592 2.7714,-1.08592 5.45703,-2.71094 1.02086,-0.58 2.04172,-1.15999 3.09351,-1.75757 1.07645,-0.62914 2.1529,-1.25828 3.26196,-1.90649 1.12221,-0.64268 2.24442,-1.28536 3.40064,-1.94751 3.27077,-1.8783 6.53071,-3.77398 9.78686,-5.67749 0.79439,-0.46293 1.58877,-0.92587 2.40723,-1.40283 3.35912,-1.96066 6.70881,-3.9366 10.05371,-5.92139 5.67235,-3.35723 11.38913,-6.63739 17.10156,-9.92578 8.49407,-4.89145 16.97516,-9.80387 25.4375,-14.75 13.73043,-8.02289 27.51078,-15.95858 41.29102,-23.89551 11.5858,-6.67405 23.16452,-13.35913 34.70898,-20.10449 13.73055,-8.02268 27.51078,-15.95858 41.29102,-23.89551 12.5678,-7.23974 25.12182,-14.50148 37.64404,-21.81982 8.6439,-5.04811 17.31187,-10.05384 25.98682,-15.04834 1.51593,-0.87302 1.51593,-0.87302 3.0625,-1.76367 0.9842,-0.56574 1.9684,-1.13148 2.98242,-1.71436 2.1385,-1.23965 4.26934,-2.49255 6.39453,-3.75488 1.08217,-0.64179 2.16434,-1.28359 3.2793,-1.94483 0.98001,-0.58596 1.96002,-1.17192 2.96972,-1.77563 2.38965,-1.28296 2.38965,-1.28296 4.38965,-1.28296 0,-41.58 0,-83.16 0,-126 -1.65,-0.66 -3.3,-1.32 -5,-2 -1.75906,-0.97207 -3.49768,-1.98167 -5.21875,-3.01953 -1.50554,-0.90504 -1.50554,-0.90504 -3.0415,-1.82837 -1.06912,-0.64832 -2.13823,-1.29664 -3.23975,-1.9646 -1.11423,-0.67217 -2.22846,-1.34433 -3.37646,-2.03687 -7.80681,-4.71512 -15.57294,-9.49516 -23.31812,-14.31079 -6.30857,-3.92146 -12.64375,-7.79699 -18.99292,-11.65234 -9.3919,-5.70388 -18.75469,-11.45375 -28.10888,-17.21924 -7.15777,-4.40896 -14.3308,-8.79185 -21.51612,-13.15576 -8.12172,-4.93303 -16.2122,-9.91372 -24.28564,-14.92529 -7.29606,-4.52402 -14.62683,-8.98945 -21.96436,-13.4458 -8.43181,-5.12456 -16.83428,-10.29602 -25.23388,-15.47315 -7.15777,-4.40896 -14.33079,-8.79187 -21.51612,-13.15576 -7.14672,-4.34062 -14.27238,-8.71259 -21.375,-13.125 -8.238,-5.11708 -16.51788,-10.16299 -24.8125,-15.1875 -9.14675,-5.5407 -18.26688,-11.12112 -27.35083,-16.7644 -7.21105,-4.47571 -14.45886,-8.88931 -21.71289,-13.29493 -8.4314,-5.12433 -16.83346,-10.29553 -25.23266,-15.47241 -7.15777,-4.40896 -14.3308,-8.79185 -21.51612,-13.15576 -8.12172,-4.93303 -16.2122,-9.91372 -24.28564,-14.92529 -7.29606,-4.52402 -14.62683,-8.98945 -21.96436,-13.4458 -8.43181,-5.12456 -16.83428,-10.29602 -25.23388,-15.47315 -7.15777,-4.40896 -14.33079,-8.79187 -21.51612,-13.15576 -7.14672,-4.34062 -14.27238,-8.71259 -21.374998,-13.125 -8.238002,-5.11708 -16.517881,-10.16299 -24.8125,-15.1875 -9.146751,-5.5407 -18.266881,-11.12112 -27.35083,-16.7644 -7.211049,-4.47571 -14.458865,-8.88931 -21.71289,-13.29493 -8.431397,-5.12433 -16.8334613,-10.29553 -25.2326662,-15.47241 -7.1577678,-4.40896 -14.3307988,-8.79185 -21.5161128,-13.15576 -8.121721,-4.93303 -16.212199,-9.91372 -24.285645,-14.92529 -7.29606,-4.52402 -14.626825,-8.98945 -21.964355,-13.4458 -8.430419,-5.12371 -16.831855,-10.29374 -25.229493,-15.47095 -7.19837,-4.43484 -14.41626,-8.83618 -21.64551,-13.22046 -10.09913,-6.12784 -20.10001,-12.40284 -30.0625,-18.75 1.39573,-4.187197 4.34487,-5.404642 7.9375,-7.625 1.55928,-0.985906 3.11782,-1.972962 4.67578,-2.960938 0.85933,-0.542373 1.71865,-1.084746 2.60401,-1.643554 5.16921,-3.288922 10.28448,-6.660601 15.40771,-10.020508 2.25222,-1.474549 4.50501,-2.948229 6.75781,-4.421875 0.83675,-0.547494 0.83675,-0.547494 1.69039,-1.106049 5.47178,-3.579885 10.9489,-7.151564 16.426803,-10.722076 8.171153,-5.326486 16.337103,-10.660868 24.5,-16 8.162896,-5.339132 16.328887,-10.673451 24.5,-16 8.587313,-5.598087 17.170095,-11.203067 25.75,-16.8125 0.855977,-0.5595337 0.855977,-0.5595337 1.729248,-1.1303711 1.616394,-1.0566476 3.232638,-2.113524 4.848876,-3.1704102 C -9.3983252,4.4460754 -9.3983252,4.4460754 -7.9794922,3.5183105 -2.569064,-0.03067539 -2.569064,-0.03067539 0,0 Z"
         fill="#d10000"
         transform="translate(577.61719,497.03125)"
         id="path2" /><path
         d="M 0,0 C 1.4248601,0.12457309 2.8488702,0.25889006 4.2724609,0.3972168 5.0655365,0.47095016 5.8586121,0.54468353 6.6757202,0.62065125 10.293249,1.2110729 13.180709,2.9172767 16.25,4.8125 c 1.391739,0.8206316 2.783677,1.6409263 4.175781,2.4609375 0.735572,0.4405371 1.471143,0.8810742 2.229004,1.3349609 3.340494,1.9821796 6.720793,3.8919176 10.099854,5.8073726 8.142279,4.61833 16.233185,9.320045 24.292968,14.080567 5.945143,3.508967 11.930998,6.943275 17.932373,10.355224 11.393853,6.477724 22.775119,12.971164 34.05835,19.640137 C 113.33887,61.031182 117.6588,63.530604 122,66 c 5.04841,2.871676 10.06265,5.794701 15.0625,8.75 6.44632,3.80865 12.93085,7.545431 19.4375,11.25 6.50666,3.704571 12.99106,7.441548 19.4375,11.25 6.64757,3.92671 13.33051,7.78562 20.04248,11.60156 11.39674,6.47937 22.7792,12.97706 34.06714,19.64453 5.94535,3.50897 11.93133,6.94343 17.93286,10.35547 11.39674,6.47937 22.7792,12.97706 34.06714,19.64453 5.94649,3.50964 11.93418,6.94347 17.93725,10.35547 2.30977,1.31603 4.61595,2.63821 6.92188,3.96094 8.33708,4.7797 16.68338,9.53775 25.09375,14.1875 13.7975,7.63227 27.47171,15.47796 41.0481,23.49658 5.94493,3.50897 11.93066,6.94312 17.93188,10.35498 11.39674,6.47937 22.7792,12.97706 34.06714,19.64453 5.94535,3.50897 11.93133,6.94343 17.93286,10.35547 11.39674,6.47937 22.7792,12.97706 34.06714,19.64453 5.94535,3.50897 11.93133,6.94343 17.93286,10.35547 11.39674,6.47937 22.7792,12.97706 34.06714,19.64453 5.94535,3.50897 11.93133,6.94343 17.93286,10.35547 11.39674,6.47937 22.7792,12.97706 34.06714,19.64453 5.94535,3.50897 11.93133,6.94343 17.93286,10.35547 11.39674,6.47937 22.7792,12.97706 34.06714,19.64453 5.94535,3.50897 11.93133,6.94343 17.93286,10.35547 11.39674,6.47937 22.7792,12.97706 34.06714,19.64453 5.94535,3.50897 11.93133,6.94343 17.93286,10.35547 13.39934,7.6179 26.75345,15.30158 40.02002,23.14844 7.975,4.71094 15.94986,9.41832 24,14 1.11891,0.64066 2.23781,1.28133 3.39062,1.94141 1.89688,1.08567 3.79727,2.16361 5.70508,3.22998 24.20871,13.53819 24.20871,13.53819 28.28321,25.46923 1.36359,5.17994 1.76063,10.01269 1.73462,15.36255 1.4e-4,0.79077 2.9e-4,1.58154 4.4e-4,2.39627 -7e-4,2.60256 -0.008,5.20505 -0.0163,7.80759 -0.002,1.80889 -0.003,3.61779 -0.004,5.42668 -0.004,4.75273 -0.0136,9.50542 -0.0247,14.25814 -0.0102,4.8531 -0.0148,9.70621 -0.0198,14.55932 -0.0107,9.51629 -0.0278,19.03256 -0.0488,28.54883 -3.53064,-1.38427 -6.80356,-2.9098 -10.11328,-4.76563 -1.48186,-0.82939 -1.48186,-0.82939 -2.99365,-1.67553 -1.05784,-0.59692 -2.11568,-1.19384 -3.20557,-1.80884 -1.1094,-0.62334 -2.2188,-1.24668 -3.36182,-1.88892 -8.43922,-4.7576 -16.80814,-9.63021 -25.16089,-14.53784 -8.62202,-5.04793 -17.35054,-9.89099 -26.0979,-14.71753 -8.41204,-4.65402 -16.72263,-9.46161 -25.0083,-14.33618 C 702.60136,498.89737 695.06856,494.67606 687.5,490.5 677.93705,485.22351 668.47208,479.80761 659.05859,474.26953 651.60136,469.89737 644.06856,465.67606 636.5,461.5 627.93417,456.77369 619.4323,451.96067 611,447 c -9.63318,-5.66564 -19.36629,-11.13047 -29.14673,-16.53735 -9.38679,-5.19182 -18.70975,-10.48714 -28.01098,-15.83033 -5.52766,-3.17453 -11.05935,-6.34201 -16.59229,-9.50732 -0.59332,-0.33956 -1.18664,-0.67911 -1.79794,-1.02896 -8.37324,-4.79025 -16.77533,-9.52532 -25.20206,-14.22104 -9.09936,-5.0712 -18.10967,-10.27797 -27.09082,-15.55518 -8.6203,-5.04654 -17.34685,-9.88863 -26.09229,-14.71411 -8.41204,-4.65402 -16.72263,-9.46161 -25.0083,-14.33618 C 424.60136,340.89737 417.06856,336.67606 409.5,332.5 399.93705,327.22351 390.47208,321.80761 381.05859,316.26953 373.60136,311.89737 366.06856,307.67606 358.5,303.5 349.93417,298.77369 341.4323,293.96067 333,289 c -9.63318,-5.66564 -19.36629,-11.13047 -29.14673,-16.53735 -9.38394,-5.19025 -18.70389,-10.48417 -28.0022,-15.82593 -5.57137,-3.19837 -11.14879,-6.38617 -16.72607,-9.57422 -0.59787,-0.34183 -1.19575,-0.68367 -1.81174,-1.03586 -8.84949,-5.05896 -17.71546,-10.08806 -26.59451,-15.095 -8.14616,-4.59773 -16.26444,-9.24372 -24.38123,-13.893 -8.33434,-4.77221 -16.69784,-9.48924 -25.08752,-14.16364 -9.0994,-5.07114 -18.10967,-10.27797 -27.09082,-15.55518 -8.6203,-5.04654 -17.34685,-9.88863 -26.09229,-14.71411 -8.41204,-4.65402 -16.72263,-9.46161 -25.0083,-14.33618 C 95.601358,153.89737 88.068564,149.67606 80.5,145.5 70.943672,140.22717 61.484445,134.81632 52.078369,129.28052 44.430244,124.79521 36.699901,120.47032 28.9375,116.1875 2.7062381,101.70624 2.7062381,101.70624 0,99 c -0.09532328,-3.074548 -0.1255138,-6.126592 -0.11352539,-9.201416 -1.4603e-4,-0.96575 -2.9205e-4,-1.931499 -4.4251e-4,-2.926514 6.9956e-4,-3.208681 0.008494,-6.417305 0.01631165,-9.625976 0.001864,-2.218175 0.003288,-4.436351 0.0042877,-6.654526 0.0038264,-5.850969 0.01365767,-11.701913 0.02470398,-17.552872 0.01021156,-5.965369 0.01479309,-11.930742 0.01983643,-17.896118 C -0.03808869,23.428375 -0.02101085,11.714189 0,0 Z"
         fill="#d13e3e"
         transform="translate(850,24)"
         id="path3" /><path
         d="M 0,0 C 3.5429655,0.65006451 6.0528621,1.3998471 9.0976563,3.34375 9.8840649,3.8390723 10.670474,4.3343945 11.480713,4.8447266 12.332703,5.3909668 13.184692,5.937207 14.0625,6.5 c 1.895004,1.1940251 3.790883,2.3866627 5.6875,3.578125 1.011914,0.637441 2.023828,1.274883 3.066406,1.931641 5.548387,3.468592 11.148438,6.852031 16.746094,10.240234 1.188535,0.720362 2.377011,1.440822 3.56543,2.161377 2.412182,1.462412 4.824638,2.924372 7.237304,4.385986 5.984807,3.626115 11.965897,7.258355 17.947266,10.890137 1.175456,0.713623 2.350911,1.427246 3.526367,2.140869 10.127087,6.14869 20.247886,12.307679 30.366703,18.469971 4.76438,2.901254 9.52944,5.801392 14.29443,8.70166 1.91667,1.166662 3.83334,2.333328 5.75,3.5 0.94875,0.5775 1.8975,1.155 2.875,1.75 2.875,1.75 5.75,3.5 8.625,5.25 0.94851,0.577339 1.89702,1.154678 2.87427,1.749512 1.91916,1.168211 3.83826,2.336506 5.75732,3.504883 4.75314,2.893704 9.50711,5.786025 14.26294,8.675292 10.03308,6.097483 20.0488,12.221733 30.04297,18.382813 12.55127,7.73559 25.14927,15.39233 37.7583,23.0332 5.95763,3.61054 11.91205,7.22636 17.8667,10.8418 0.87557,0.53156 0.87557,0.53156 1.76883,1.07385 10.71315,6.504 21.42007,13.01822 32.12424,19.53699 4.76438,2.90125 9.52944,5.80139 14.29443,8.70166 1.91667,1.16666 3.83334,2.33333 5.75,3.5 0.94875,0.5775 1.8975,1.155 2.875,1.75 2.875,1.75 5.75,3.5 8.625,5.25 0.94851,0.57734 1.89702,1.15468 2.87427,1.74951 1.91916,1.16821 3.83826,2.33651 5.75732,3.50488 4.75314,2.89371 9.50711,5.78603 14.26294,8.6753 10.03308,6.09748 20.0488,12.22173 30.04297,18.38281 12.55127,7.73559 25.14927,15.39233 37.7583,23.0332 5.95763,3.61054 11.91205,7.22636 17.8667,10.8418 0.58371,0.35437 1.16743,0.70874 1.76883,1.07385 10.71315,6.504 21.42007,13.01822 32.12424,19.53699 4.76438,2.90125 9.52944,5.80139 14.29443,8.70166 1.91667,1.16666 3.83334,2.33333 5.75,3.5 0.94875,0.5775 1.8975,1.155 2.875,1.75 4.3125,2.625 4.3125,2.625 8.625,5.25 0.94851,0.57734 1.89702,1.15468 2.87427,1.74951 1.91916,1.16821 3.83826,2.33651 5.75732,3.50488 4.75314,2.89371 9.50711,5.78603 14.26294,8.6753 10.03308,6.09748 20.0488,12.22173 30.04297,18.38281 12.55127,7.73559 25.14927,15.39233 37.7583,23.0332 5.95763,3.61054 11.91205,7.22636 17.8667,10.8418 0.87557,0.53156 0.87557,0.53156 1.76883,1.07385 10.71315,6.504 21.42007,13.01822 32.12424,19.53699 4.76438,2.90125 9.52944,5.80139 14.29443,8.70166 1.91667,1.16666 3.83334,2.33333 5.75,3.5 0.94875,0.5775 1.8975,1.155 2.875,1.75 2.875,1.75 5.75,3.5 8.625,5.25 0.94851,0.57734 1.89702,1.15468 2.87427,1.74951 1.91916,1.16821 3.83826,2.33651 5.75732,3.50488 4.75314,2.89371 9.50711,5.78603 14.26294,8.6753 10.03308,6.09748 20.0488,12.22173 30.04297,18.38281 9.04333,5.57359 18.10534,11.11501 27.1875,16.625 0.57361,0.34814 1.14723,0.69628 1.73822,1.05496 6.05714,3.67592 12.11751,7.34641 18.18396,11.00694 2.55753,1.54375 5.1138,3.08958 7.66992,4.63564 1.21303,0.73289 2.42667,1.46475 3.64099,2.1955 1.69077,1.01748 3.37927,2.03872 5.06769,3.06008 1.43727,0.86674 1.43727,0.86674 2.90357,1.75098 0.96381,0.61327 1.92763,1.22654 2.92065,1.8584 0.58915,0.31307 1.1783,0.62614 1.78531,0.94869 2.76785,1.63343 4.82965,2.88383 5.86495,6.02297 0.2527,2.4624 0.28119,4.84156 0.23621,7.31667 0.0108,0.92732 0.0216,1.85464 0.0327,2.81006 0.0274,3.05786 0.006,6.11327 -0.0168,9.17114 0.009,2.12279 0.0218,4.24558 0.0372,6.36833 0.0323,5.58155 0.0228,11.16227 0.005,16.74385 -0.0112,5.69773 0.0171,11.39524 0.0421,17.0929 0.0432,11.17528 0.0423,22.35008 0.0137,33.52539 -1.73139,-0.93666 -3.46184,-1.87508 -5.19189,-2.81421 -0.96375,-0.52239 -1.9275,-1.04477 -2.92045,-1.58299 -4.34526,-2.41184 -8.5535,-5.02522 -12.76266,-7.6653 -1.84762,-1.15111 -3.69527,-2.30215 -5.54297,-3.45313 -0.9299,-0.58072 -1.85979,-1.16144 -2.81787,-1.75976 -4.31072,-2.68954 -8.63102,-5.36355 -12.95166,-8.03711 -0.85255,-0.52795 -1.70511,-1.0559 -2.5835,-1.59985 C 734.16049,540.71237 727.08113,536.35483 720,532 c -12.18953,-7.49644 -24.35924,-15.02445 -36.52246,-22.56348 -11.59503,-7.18596 -23.20402,-14.34879 -34.82398,-21.49438 -7.56891,-4.65569 -15.1278,-9.32726 -22.6809,-14.00855 C 618.99046,469.60824 611.9964,465.30234 605,461 596.31501,455.65929 587.63884,450.30475 578.97266,444.93359 571.99046,440.60824 564.99638,436.30236 558,432 c -12.18956,-7.4964 -24.35924,-15.02445 -36.52246,-22.56348 -11.59503,-7.18596 -23.20402,-14.34879 -34.82398,-21.49438 -7.56891,-4.65569 -15.1278,-9.32726 -22.6809,-14.00855 C 456.99046,369.60824 449.99638,365.30236 443,361 c -12.18956,-7.4964 -24.35924,-15.02445 -36.52246,-22.56348 -11.59503,-7.18596 -23.20402,-14.34879 -34.82398,-21.49438 -7.56891,-4.65569 -15.1278,-9.32726 -22.6809,-14.00855 C 341.99046,298.60824 334.99638,294.30236 328,290 c -12.18956,-7.4964 -24.35924,-15.02445 -36.52246,-22.56348 -11.59503,-7.18596 -23.20402,-14.34879 -34.82398,-21.49438 -7.56891,-4.65569 -15.1278,-9.32726 -22.6809,-14.00855 C 226.99046,227.60824 219.9964,223.30234 213,219 204.31501,213.65929 195.63884,208.30475 186.97266,202.93359 179.99046,198.60824 172.99638,194.30236 166,190 c -12.18956,-7.4964 -24.35924,-15.02445 -36.52246,-22.56348 -11.59503,-7.18596 -23.20402,-14.34879 -34.823976,-21.49438 -7.568917,-4.65569 -15.127804,-9.32726 -22.680908,-14.00855 -8.089944,-5.01158 -16.196148,-9.9966 -24.302734,-14.9812 -7.657563,-4.70994 -15.306529,-9.4335 -22.94336,-14.177 -0.75539,-0.46857 -1.510781,-0.93715 -2.289062,-1.41992 -1.130624,-0.73664 -1.130624,-0.73664 -2.284088,-1.48816 C 17.640986,98.379563 15.233051,97.173524 12.585602,95.9729 0.48752692,90.128539 0.48752692,90.128539 -1.9944229,84.908548 -3.4539027,78.970554 -2.9211357,72.939934 -2.5390625,66.894531 c 0.056099,-1.934625 0.1041157,-3.869501 0.1444397,-5.804519 0.1270296,-5.063789 0.3627127,-10.116719 0.6222229,-15.175217 0.2457993,-5.173287 0.387359,-10.349347 0.5380249,-15.526123 C -0.92418281,20.253755 -0.4989805,10.127256 0,0 Z"
         fill="#d13e3e"
         transform="translate(576,497)"
         id="path4" /><path
         d="M 0,0 C 0.83204956,0.56485107 0.83204956,0.56485107 1.6809082,1.1411133 6.7577051,4.5607397 11.895268,7.8010016 17.1875,10.875 c 0.737021,0.430708 1.474043,0.861416 2.233398,1.305176 6.164397,3.595676 12.355192,7.144302 18.559082,10.671386 11.39674,6.479365 22.779198,12.977057 34.067139,19.644532 5.945355,3.508965 11.931327,6.943429 17.932861,10.355468 11.39674,6.479365 22.7792,12.977057 34.06714,19.644532 5.94535,3.508965 11.93133,6.943429 17.93286,10.355468 11.39674,6.479365 22.7792,12.977057 34.06714,19.644528 5.94535,3.50897 11.93133,6.94343 17.93286,10.35547 11.39385,6.47773 22.77512,12.97117 34.05835,19.64014 4.30054,2.53948 8.62047,5.0389 12.96167,7.5083 5.04841,2.87168 10.06265,5.7947 15.0625,8.75 6.44632,3.80865 12.93085,7.54543 19.4375,11.25 6.50666,3.70457 12.99106,7.44155 19.4375,11.25 6.64757,3.92671 13.33051,7.78562 20.04248,11.60156 11.39674,6.47937 22.7792,12.97706 34.06714,19.64453 5.94535,3.50897 11.93133,6.94343 17.93286,10.35547 11.39674,6.47937 22.7792,12.97706 34.06714,19.64453 5.94535,3.50897 11.93133,6.94343 17.93286,10.35547 11.39674,6.47937 22.7792,12.97706 34.06714,19.64453 5.94535,3.50897 11.93133,6.94343 17.93286,10.35547 11.39674,6.47937 22.7792,12.97706 34.06714,19.64453 5.94535,3.50897 11.93133,6.94343 17.93286,10.35547 11.39674,6.47937 22.7792,12.97706 34.06714,19.64453 5.94535,3.50897 11.93133,6.94343 17.93286,10.35547 11.45994,6.5153 22.91782,13.03015 34.25171,19.76319 4.87825,2.89114 9.80496,5.62783 14.76831,8.38525 0,34.98 0,69.96 0,106 -3.77732,-1.51093 -6.82547,-2.96805 -10.26953,-5.02734 -1.03697,-0.61738 -2.07394,-1.23476 -3.14234,-1.87085 -1.1222,-0.67297 -2.24441,-1.34595 -3.40063,-2.03931 -1.19518,-0.71333 -2.39058,-1.42629 -3.58618,-2.13892 -2.54733,-1.51867 -5.09362,-3.03905 -7.63941,-4.5603 -3.95283,-2.36013 -7.91354,-4.70681 -11.87597,-7.05078 -13.38062,-7.91852 -26.72408,-15.89082 -39.9968,-23.98898 -9.40887,-5.73719 -18.89237,-11.33671 -28.41272,-16.88657 C 506.13918,397.87467 496.6826,392.19193 487.26025,386.4375 478.39604,381.02697 469.47192,375.72982 460.5,370.5 450.35329,364.58539 440.28346,358.55889 430.26025,352.4375 421.39603,347.02697 412.47183,341.72998 403.5,336.5 c -9.59882,-5.59612 -19.13937,-11.27653 -28.625,-17.0625 -12.36723,-7.54216 -24.81085,-14.94969 -37.28369,-22.31592 -6.51316,-3.84702 -13.02233,-7.70078 -19.52881,-11.55908 -1.01092,-0.59935 -1.01092,-0.59935 -2.04227,-1.21082 -10.01831,-5.94261 -19.98763,-11.9613 -29.93109,-18.02816 -9.40887,-5.73719 -18.89237,-11.33671 -28.41272,-16.88657 C 248.13918,243.87467 238.6826,238.19193 229.26025,232.4375 220.39604,227.02697 211.47192,221.72982 202.5,216.5 192.35329,210.58539 182.28346,204.55889 172.26025,198.4375 163.39604,193.02697 154.47188,187.7299 145.5,182.5 135.79606,176.84305 126.15246,171.09817 116.5625,165.25 105.79437,158.68451 94.969662,152.22403 84.100586,145.82715 77.852531,142.14522 71.612701,138.44943 65.375,134.75 64.69219,134.34511 64.009379,133.94023 63.305878,133.52307 53.192984,127.52329 43.128265,121.44882 33.090515,115.32434 23.681184,109.58689 14.197234,103.98708 4.6764221,98.436951 -4.8557334,92.877631 -14.307702,87.198572 -23.72464,81.446564 -34.067178,75.132587 -44.494944,68.972994 -54.970703,62.882812 -58.319969,60.93212 -61.662388,58.970562 -65,57 c -0.610633,-0.359387 -1.221266,-0.718773 -1.850403,-1.08905 -1.83746,-1.085813 -3.66813,-2.182259 -5.497253,-3.282044 -1.084182,-0.647673 -2.168365,-1.295346 -3.285401,-1.962646 C -76.414148,50.116394 -77.195239,49.566528 -78,49 c 0,-0.66 0,-1.32 0,-2 2.060773,-1.396581 4.107356,-2.65624 6.261719,-3.894531 0.653172,-0.383532 1.306344,-0.767063 1.979309,-1.162216 1.409173,-0.826569 2.820276,-1.649853 4.233063,-2.470231 3.709964,-2.154704 7.406055,-4.332992 11.104034,-6.508178 0.734076,-0.4309 1.468152,-0.861799 2.224472,-1.305756 C -46.433972,28.271197 -40.729973,24.79628 -35.0625,21.25 -23.470171,14.008019 -11.736987,7.0042133 0,0 Z"
         fill="#d13e3e"
         transform="translate(225,1308)"
         id="path5" /><path
         d="M 0,0 C 2.5341576,1.4158104 4.9449534,2.8622184 7.375,4.4375 8.0797949,4.8863354 8.7845898,5.3351709 9.5107422,5.7976074 14.749672,9.1495157 19.932973,12.584771 25.095947,16.052246 30.137237,19.437288 35.217462,22.75899 40.3125,26.0625 c 7.844406,5.087338 15.676233,10.193473 23.5,15.3125 8.225207,5.381094 16.453403,10.75752 24.6875,16.125 3.833513,2.499725 7.666791,4.999809 11.5,7.5 1.06815,0.696577 2.1363,1.393154 3.23682,2.11084 C 116.87109,76.004661 130.47945,84.933892 144,94 c -1.14149,3.424475 -1.57692,3.634011 -4.55859,5.355469 -1.14723,0.673611 -1.14723,0.673611 -2.31763,1.360841 -1.26783,0.72824 -1.26783,0.72824 -2.56128,1.47119 -1.83689,1.07781 -3.67278,2.15732 -5.50781,3.23828 -0.98259,0.57702 -1.96518,1.15403 -2.97754,1.74854 -5.33755,3.16679 -10.61098,6.43702 -15.88965,9.70068 -8.31672,5.13188 -16.646706,10.24037 -25,15.3125 C 77.937057,136.59122 70.707326,141.02607 63.5,145.5 55.339977,150.56532 47.146438,155.573 38.9375,160.55859 31.608702,165.01278 24.300816,169.50012 17,174 c -8.2553769,5.08823 -16.52392061,10.15354 -24.8125,15.1875 -7.250394,4.4038 -14.480174,8.83857 -21.6875,13.3125 -7.207328,4.47393 -14.437175,8.90859 -21.6875,13.3125 -8.431264,5.12225 -16.846403,10.26998 -25.25,15.4375 -1.094978,0.67063 -2.189956,1.34127 -3.318115,2.03223 -4.785063,2.93718 -9.548284,5.89156 -14.232666,8.9873 -0.732268,0.47857 -1.464536,0.95713 -2.218994,1.4502 -1.309747,0.86095 -2.610709,1.73551 -3.899905,2.62695 -2.66114,1.74112 -4.54302,2.6423 -7.74438,2.74316 -4.52339,-1.56578 -8.26864,-3.99672 -12.27344,-6.58984 -1.88581,-1.19414 -3.77258,-2.38677 -5.66016,-3.57813 -1.00563,-0.63744 -2.01126,-1.27488 -3.04736,-1.93164 -4.95549,-3.1137 -9.96051,-6.14521 -14.96796,-9.17431 -1.7802,-1.07691 -3.55956,-2.1552 -5.33868,-3.23389 -2.41575,-1.46462 -4.83178,-2.92879 -7.24805,-4.39258 -5.29222,-3.20658 -10.58092,-6.41895 -15.86984,-9.63098 -2.91417,-1.76974 -5.82857,-3.53908 -8.74295,-5.30847 -1.16667,-0.70833 -2.33333,-1.41666 -3.5,-2.125 -0.5775,-0.35063 -1.155,-0.70125 -1.75,-1.0625 -5.25,-3.1875 -5.25,-3.1875 -6.99982,-4.24989 -1.16727,-0.7087 -2.33455,-1.41739 -3.50183,-2.12607 -2.90745,-1.76519 -5.81481,-3.53052 -8.72198,-5.29616 -6.598,-4.00697 -13.19849,-8.00981 -19.80133,-12.00879 -5.22837,-3.16749 -10.44995,-6.34601 -15.67035,-9.52661 -2.78296,-1.68997 -5.57364,-3.3662 -8.36719,-5.03857 -1.47945,-0.89668 -2.95864,-1.79377 -4.4375,-2.69141 -0.65581,-0.38664 -1.31162,-0.77328 -1.9873,-1.17163 -1.74707,-1.07056 -1.74707,-1.07056 -4.2627,-2.95337 0,-0.99 0,-1.98 0,-3 1.65454,-1.31177 1.65454,-1.31177 4.00391,-2.64453 0.8739,-0.50459 1.7478,-1.00918 2.64819,-1.52905 0.96043,-0.54085 1.92086,-1.08169 2.9104,-1.63892 2.03472,-1.17298 4.06855,-2.34751 6.10156,-3.52344 1.0522,-0.60553 2.1044,-1.21107 3.18848,-1.83496 4.90547,-2.85074 9.74609,-5.80465 14.58496,-8.7666 1.92968,-1.1784 3.85937,-2.35678 5.78906,-3.53516 0.95552,-0.5841 1.91104,-1.16821 2.89551,-1.77002 2.83985,-1.73407 5.68252,-3.46341 8.52637,-5.19091 10.03261,-6.09482 20.04641,-12.21877 30.03906,-18.37891 12.55127,-7.735594 25.14927,-15.392335 37.7583,-23.033203 5.95763,-3.610535 11.91205,-7.226359 17.8667,-10.841797 0.58371,-0.354371 1.16743,-0.708743 1.76883,-1.073853 C -111.20552,63.73465 -100.4986,57.220431 -89.794434,50.70166 -85.030049,47.800406 -80.264985,44.900268 -75.5,42 c 1.91667,-1.166662 3.833336,-2.333328 5.75,-3.5 11.5,-7 11.5,-7 14.377441,-8.751465 1.908554,-1.161742 3.817083,-2.323526 5.725586,-3.485351 4.915585,-2.992351 9.831658,-5.983896 14.748536,-8.974122 1.001762,-0.609646 2.003525,-1.219291 3.035644,-1.847412 1.965998,-1.195374 3.933092,-2.388946 5.901367,-3.580566 4.072418,-2.469324 8.130173,-4.9477823 12.117676,-7.5524903 0.599253,-0.3868798 1.198506,-0.7737597 1.815918,-1.1723632 1.509106,-0.9803616 3.007364,-1.9773704 4.5043945,-2.97607425 C -4.3388049,-1.303986 -3.2766943,-1.2092562 0,0 Z"
         fill="#d10000"
         transform="translate(1120,499)"
         id="path6" /><path
         d="M 0,0 C 1.5135659,0.90621356 3.0279432,1.8110727 4.5429687,2.7148438 5.785061,3.4571021 5.785061,3.4571021 7.0522461,4.2143555 12.111362,7.2113665 17.214882,10.131634 22.3125,13.0625 c 8.494343,4.890963 16.975159,9.803875 25.4375,14.75 12.637393,7.384219 25.316754,14.694902 38,22 13.675543,7.876626 27.33961,15.771201 40.96582,23.73291 11.65077,6.802966 23.34322,13.533512 35.03418,20.26709 13.67554,7.87663 27.33961,15.7712 40.96582,23.73291 8.36487,4.88431 16.74756,9.73729 25.14526,14.56494 5.0815,2.92203 10.15699,5.85274 15.20819,8.8268 1.77048,1.04188 3.54292,2.08032 5.31598,3.11778 2.22109,1.30104 4.43847,2.60844 6.65137,3.92334 5.21166,3.04311 10.16379,5.62049 15.969,7.31763 1.74438,0.5166 1.74438,0.5166 3.74438,1.5166 0.0233,10.54552 0.041,21.09103 0.0518,31.63657 0.005,4.89834 0.0122,9.79665 0.0236,14.69497 0.011,4.73978 0.0169,9.47953 0.0194,14.21932 0.002,1.7954 0.005,3.5908 0.0109,5.3862 0.0323,11.06733 -0.25896,22.02483 -1.10573,33.06294 -8.78758,-4.70574 -17.37744,-9.70953 -25.9375,-14.8125 -1.41861,-0.84377 -2.83723,-1.68752 -4.25586,-2.53125 -9.53659,-5.67803 -19.03416,-11.41805 -28.51096,-17.19522 -9.39097,-5.72357 -18.83147,-11.35948 -28.29568,-16.96103 -10.6113,-6.28047 -21.18099,-12.62293 -31.70898,-19.04199 -9.38945,-5.72253 -18.82861,-11.35706 -28.29102,-16.95801 -10.11576,-5.98901 -20.20641,-12.01565 -30.25,-18.125 -0.57174,-0.34774 -1.143479,-0.69549 -1.732544,-1.05377 -4.577069,-2.78479 -9.151576,-5.57377 -13.725952,-8.36298 C 77.028889,138.32433 73.01522,135.87965 69,133.4375 68.428583,133.08992 67.857166,132.74233 67.268433,132.38422 57.125191,126.21842 46.924893,120.15135 36.710083,114.10504 26.779619,108.22584 16.894225,102.27815 7.0410156,96.270508 -2.3484256,90.547981 -11.787384,84.913101 -21.25,79.3125 -32.426712,72.697384 -43.553259,66.007013 -54.641113,59.244141 c -6.302404,-3.839428 -12.625433,-7.64121 -18.976074,-11.400391 -0.709408,-0.420033 -1.418815,-0.840066 -2.14972,-1.272827 -3.430623,-2.029944 -6.863485,-4.055978 -10.299499,-6.076782 -6.428624,-3.78901 -12.816529,-7.638974 -19.128904,-11.619141 -0.60948,-0.377776 -1.21895,-0.755552 -1.8469,-1.144775 -1.43885,-0.918092 -2.82928,-1.911302 -4.20779,-2.917725 0,-0.66 0,-1.32 0,-2 9.23368,-2.748318 18.467567,-5.49591 27.701714,-8.242646 4.29061,-1.276284 8.581153,-2.552791 12.871528,-3.829864 0.829235,-0.246803 1.65847,-0.493606 2.512833,-0.7478883 1.663628,-0.4951594 3.327233,-0.9903971 4.990814,-1.485714 4.089547,-1.217164 8.179889,-2.4315261 12.271988,-3.6400852 1.585558,-0.4685266 3.171089,-0.9371429 4.756592,-1.4058533 0.764379,-0.2259566 1.528757,-0.4519133 2.316299,-0.6847172 4.721692,-1.4001526 9.428269,-2.84145704 14.129013,-4.3104 1.111857,-0.3415965 2.223714,-0.683193 3.369263,-1.035141 1.997504,-0.6147711 3.991052,-1.2426328 5.979248,-1.8868713 C -11.919336,-7.023111 -7.3261567,-4.4641394 0,0 Z"
         fill="#d13e3e"
         transform="translate(572.25,1158.1875)"
         id="path7" /><path
         d="m 0,0 c 4.3834139,1.0958535 7.5637263,3.0376555 11.3125,5.4375 0.709307,0.4488354 1.418613,0.8976709 2.149414,1.3601074 5.260595,3.3448366 10.459088,6.7788276 15.633789,10.2546386 5.041547,3.384779 10.121701,6.706707 15.216797,10.010254 7.844406,5.087338 15.676233,10.193473 23.5,15.3125 8.225207,5.381094 16.453403,10.75752 24.6875,16.125 3.833513,2.499725 7.66679,4.999809 11.5,7.5 1.06815,0.696577 2.1363,1.393154 3.23682,2.11084 C 114.83074,73.064458 122.4196,78.025705 130,83 c 0.956,0.62729 1.912,1.25458 2.89697,1.900879 2.57895,1.695312 5.1543,3.395906 7.72803,5.099121 0.75837,0.498464 1.51674,0.996929 2.2981,1.510498 1.71033,1.136492 3.39686,2.308697 5.0769,3.489502 0,0.33 0,0.66 0,1 C 119.56309,96.168233 91.144399,95.744946 62.713135,95.200439 56.563743,95.082816 50.41424,94.97271 44.264678,94.864434 c -4.78087,-0.08513 -9.561652,-0.174518 -14.34242,-0.265193 -2.271403,-0.04249 -4.542833,-0.08354 -6.814289,-0.123119 -3.139689,-0.05525 -6.279211,-0.116347 -9.41876,-0.179003 -0.928019,-0.01511 -1.856039,-0.03021 -2.81218,-0.04578 -0.852342,-0.0182 -1.704684,-0.03641 -2.5828548,-0.05516 -0.7373113,-0.01383 -1.4746227,-0.02765 -2.2342768,-0.0419 C 4,94 4,94 0,93 0,62.31 0,31.62 0,0 Z"
         fill="#d13e3e"
         transform="translate(1116,498)"
         id="path8" /></g></g><g
     inkscape:groupmode="layer"
     id="layer2"
     inkscape:label="Layer 2"
     style="opacity:1"><path
       sodipodi:type="star"
       style="fill:none;fill-opacity:1;stroke:#e00000;stroke-width:97.9563;stroke-dasharray:none;stroke-opacity:1"
       id="path10"
       inkscape:flatsided="true"
       sodipodi:sides="6"
       sodipodi:cx="306.87912"
       sodipodi:cy="459.80203"
       sodipodi:r1="437.31445"
       sodipodi:r2="378.72543"
       sodipodi:arg1="-0.52359878"
       sodipodi:arg2="0"
       inkscape:rounded="0"
       inkscape:randomized="0"
       d="m 685.60454,241.1448 10e-6,437.31446 -378.72543,218.65723 -378.725425,-218.65723 -2e-6,-437.31445 L 306.87912,22.487579 Z"
       inkscape:transform-center-x="1.0260788e-06"
       transform="matrix(0.80299474,0,0,0.80299474,148.91656,27.813044)"
       inkscape:transform-center-y="-1.5465678e-06" /><path
       style="fill:#e00000;fill-opacity:1;stroke:#e00000;stroke-width:2;stroke-dasharray:none;stroke-opacity:1"
       d="m 279.74556,205.56445 330.94401,199.162 V 507.72846 L 395.36357,633.09582 176.60493,507.5797 V 405.68901 l 147.86619,-90.4377 64.20386,40.04112 -115.98116,72.04294 v 52.45827 l 122.67663,69.48227 120.02097,-69.50538 v -52.43516 l -296.546,-185.14702 z"
       id="path12"
       sodipodi:nodetypes="ccccccccccccccc" /><path
       style="fill:#e00000;fill-opacity:1;stroke:#e00000;stroke-width:2;stroke-dasharray:none;stroke-opacity:1"
       d="m 398.58357,270.68534 64.92541,39.54105 106.6715,-67.52739 -62.91491,-37.1673 z"
       id="path13"
       sodipodi:nodetypes="ccccc" /></g><g
     inkscape:groupmode="layer"
     id="layer3"
     inkscape:label="Layer 3"
     style="display:none"><path
       style="fill:none;fill-opacity:1;stroke:#e00000;stroke-width:2;stroke-dasharray:none;stroke-opacity:1"
       d="M 395.3371,702.77881 V 112.2532"
       id="path14" /><path
       style="display:inline;fill:none;fill-opacity:1;stroke:#e00000;stroke-width:2;stroke-dasharray:none;stroke-opacity:1"
       d="M 631.86007,243.64066 H 175.7184"
       id="path15" /><path
       style="display:inline;fill:none;fill-opacity:1;stroke:#e00000;stroke-width:2;stroke-dasharray:none;stroke-opacity:1"
       d="M 644.27423,202.92983 H 182.84183"
       id="path16" /></g></svg>
